<?xml version="1.0" encoding="UTF-8" standalone="no"?>
<svg
   xmlns:dc="http://purl.org/dc/elements/1.1/"
   xmlns:cc="http://creativecommons.org/ns#"
   xmlns:rdf="http://www.w3.org/1999/02/22-rdf-syntax-ns#"
   xmlns:svg="http://www.w3.org/2000/svg"
   xmlns="http://www.w3.org/2000/svg"
   version="1.1"
   id="svg2"
   viewBox="0 0 530.80958 65.614954"
   height="18.517998mm"
   width="149.80626mm">
  <defs
     id="defs4" />
  <metadata
     id="metadata7">
    <rdf:RDF>
      <cc:Work
         rdf:about="">
        <dc:format>image/svg+xml</dc:format>
        <dc:type
           rdf:resource="http://purl.org/dc/dcmitype/StillImage" />
        <dc:title></dc:title>
      </cc:Work>
    </rdf:RDF>
  </metadata>
  <g
     transform="translate(10.579953,-107.62283)"
     id="layer1">
    <g
       id="text4144"
       style="font-style:normal;font-variant:normal;font-weight:normal;font-stretch:normal;font-size:11.25px;line-height:0%;font-family:'Abyssinica SIL';-inkscape-font-specification:'Abyssinica SIL, Normal';text-align:start;letter-spacing:0px;word-spacing:0px;writing-mode:lr-tb;text-anchor:start;fill:#000000;fill-opacity:1;stroke:none;stroke-width:1px;stroke-linecap:butt;stroke-linejoin:miter;stroke-opacity:1">
      <path
         id="path4203"
         style="font-style:normal;font-variant:normal;font-weight:normal;font-stretch:normal;font-size:31.25px;line-height:0%;font-family:'Abyssinica SIL';-inkscape-font-specification:'Abyssinica SIL, Normal';text-align:start;writing-mode:lr-tb;text-anchor:start;fill:#800000"
         d="m 11.34795,135.0287 q 0,0.42725 -0.167846,0.80872 -0.167847,0.38147 -0.457764,0.67138 -0.289917,0.27466 -0.686645,0.44251 -0.3814701,0.16785 -0.8087162,0.16785 -0.4425049,0 -0.8239746,-0.16785 -0.366211,-0.16785 -0.656128,-0.44251 -0.289917,-0.28991 -0.4577636,-0.67138 -0.1525879,-0.38147 -0.1525879,-0.80872 0,-0.42724 0.1525879,-0.80871 0.1678466,-0.39673 0.4577636,-0.67139 0.289917,-0.28992 0.656128,-0.45776 0.3814697,-0.16785 0.8239746,-0.16785 0.4272461,0 0.8087162,0.16785 0.396728,0.16784 0.686645,0.45776 0.289917,0.27466 0.457764,0.67139 0.167846,0.38147 0.167846,0.80871 z m 0,11.61194 q 0,0.44251 -0.167846,0.82397 -0.167847,0.38147 -0.457764,0.67139 -0.289917,0.27466 -0.686645,0.44251 -0.3814701,0.16784 -0.8087162,0.16784 -0.4425049,0 -0.8239746,-0.16784 -0.366211,-0.16785 -0.656128,-0.44251 -0.289917,-0.28992 -0.4577636,-0.67139 -0.1525879,-0.38146 -0.1525879,-0.82397 0,-0.42725 0.1525879,-0.80872 0.1678466,-0.38147 0.4577636,-0.65612 0.289917,-0.28992 0.656128,-0.45777 0.3814697,-0.16784 0.8239746,-0.16784 0.4272461,0 0.8087162,0.16784 0.396728,0.16785 0.686645,0.45777 0.289917,0.27465 0.457764,0.65612 0.167846,0.38147 0.167846,0.80872 z" />
      <path
         id="path4205"
         style="font-style:normal;font-variant:normal;font-weight:normal;font-stretch:normal;font-size:31.25px;line-height:0%;font-family:'Abyssinica SIL';-inkscape-font-specification:'Abyssinica SIL, Normal';text-align:start;writing-mode:lr-tb;text-anchor:start;fill:#800000"
         d="m 26.118458,127.2162 q 0,0.47302 -0.198364,0.79346 -0.183105,0.30517 -0.442505,0.50354 -0.24414,0.1831 -0.488281,0.27466 -0.228882,0.0916 -0.320435,0.10681 -0.03052,-0.0305 -0.259399,-0.18311 -0.213623,-0.16784 -0.534058,-0.38147 -0.305176,-0.22888 -0.671386,-0.47302 -0.350953,-0.24414 -0.656128,-0.45776 -0.305176,-0.22888 -0.518799,-0.36621 -0.213623,-0.15259 -0.228882,-0.16785 -0.335693,0.18311 -0.671387,0.5188 -0.320434,0.33569 -0.595093,0.90027 -0.259399,0.56457 -0.427246,1.37329 -0.152588,0.79346 -0.152588,1.89209 l 0,1.9989 3.875733,0 0,1.60217 -3.875733,0 0,11.21521 q 0,0.28992 0.183106,0.47302 0.198364,0.18311 0.473022,0.21363 l 1.846314,0.0916 0,1.2207 -7.598877,0 0,-1.2207 1.541138,-0.0916 q 0.274658,-0.0305 0.457763,-0.21363 0.198365,-0.1831 0.198365,-0.47302 l 0,-11.21521 -1.998902,0 0,-1.09863 1.998902,-0.56458 q 0,-0.77819 0.04578,-1.38855 0.06104,-0.62561 0.183105,-1.15966 0.13733,-0.54932 0.335694,-1.05286 0.198364,-0.5188 0.488281,-1.08337 0.457764,-0.88501 1.052856,-1.52588 0.610352,-0.65613 1.296998,-1.08338 0.701904,-0.42724 1.449584,-0.64087 0.76294,-0.21362 1.525879,-0.21362 0.656128,0 1.159668,0.15259 0.50354,0.15259 0.839234,0.41199 0.350952,0.2594 0.518799,0.59509 0.167846,0.33569 0.167846,0.71716 z" />
      <path
         id="path4207"
         style="font-style:normal;font-variant:normal;font-weight:normal;font-stretch:normal;font-size:31.25px;line-height:0%;font-family:'Abyssinica SIL';-inkscape-font-specification:'Abyssinica SIL, Normal';text-align:start;writing-mode:lr-tb;text-anchor:start;fill:#800000"
         d="m 30.955494,128.14699 q 0,0.39673 -0.152587,0.76294 -0.13733,0.35095 -0.396729,0.61035 -0.259399,0.2594 -0.610352,0.41199 -0.335693,0.15258 -0.732421,0.15258 -0.396729,0 -0.76294,-0.15258 -0.350952,-0.15259 -0.610351,-0.41199 -0.2594,-0.2594 -0.411988,-0.61035 -0.152588,-0.36621 -0.152588,-0.76294 0,-0.39673 0.152588,-0.74768 0.152588,-0.35095 0.411988,-0.61035 0.259399,-0.2594 0.610351,-0.39673 0.366211,-0.15259 0.76294,-0.15259 0.396728,0 0.732421,0.15259 0.350953,0.13733 0.610352,0.39673 0.259399,0.2594 0.396729,0.61035 0.152587,0.35095 0.152587,0.74768 z m -5.737304,20.21789 0,-1.2207 1.525879,-0.0916 q 0.289917,-0.0305 0.473022,-0.21363 0.183106,-0.1831 0.183106,-0.47302 l 0,-11.15417 -2.15149,0 0,-1.09864 3.814698,-1.19018 1.235961,0 0,13.44299 q 0,0.28992 0.183106,0.47302 0.198364,0.18311 0.473022,0.21363 l 1.602173,0.0916 0,1.2207 -7.339477,0 z" />
      <path
         id="path4209"
         style="font-style:normal;font-variant:normal;font-weight:normal;font-stretch:normal;font-size:31.25px;line-height:0%;font-family:'Abyssinica SIL';-inkscape-font-specification:'Abyssinica SIL, Normal';text-align:start;writing-mode:lr-tb;text-anchor:start;fill:#800000"
         d="m 34.449757,148.36488 0,-1.2207 1.663208,-0.0916 q 0.213623,0 0.442505,-0.21363 0.244141,-0.22888 0.244141,-0.4425 l 0,-18.81409 -2.380371,0 0,-1.03759 3.997802,-1.20545 1.281739,0 0,21.05713 q 0,0.21362 0.213623,0.4425 0.228881,0.21363 0.442504,0.21363 l 1.693726,0.0916 0,1.2207 -7.598877,0 z" />
      <path
         id="path4211"
         style="font-style:normal;font-variant:normal;font-weight:normal;font-stretch:normal;font-size:31.25px;line-height:0%;font-family:'Abyssinica SIL';-inkscape-font-specification:'Abyssinica SIL, Normal';text-align:start;writing-mode:lr-tb;text-anchor:start;fill:#800000"
         d="m 43.788136,148.36488 0,-1.2207 1.663208,-0.0916 q 0.213623,0 0.442505,-0.21363 0.244141,-0.22888 0.244141,-0.4425 l 0,-18.81409 -2.380372,0 0,-1.03759 3.997803,-1.20545 1.281738,0 0,21.05713 q 0,0.21362 0.213623,0.4425 0.228882,0.21363 0.442505,0.21363 l 1.693726,0.0916 0,1.2207 -7.598877,0 z" />
      <path
         id="path4213"
         style="font-style:normal;font-variant:normal;font-weight:normal;font-stretch:normal;font-size:31.25px;line-height:0%;font-family:'Abyssinica SIL';-inkscape-font-specification:'Abyssinica SIL, Normal';text-align:start;writing-mode:lr-tb;text-anchor:start;fill:#008000"
         d="m 63.044728,148.36488 -0.411988,-1.84631 q -0.823974,0.62561 -1.693725,1.11389 -0.38147,0.21362 -0.808716,0.41199 -0.427246,0.19836 -0.88501,0.35095 -0.442505,0.16785 -0.915527,0.2594 -0.457764,0.0916 -0.915527,0.0916 -0.854493,0 -1.602173,-0.28991 -0.732422,-0.28992 -1.281738,-0.83924 -0.549317,-0.54931 -0.869751,-1.32751 -0.305176,-0.7782 -0.305176,-1.77002 0,-0.57984 0.106811,-1.09863 0.122071,-0.5188 0.473023,-1.00708 0.350952,-0.48829 0.976562,-0.93079 0.640869,-0.45776 1.663208,-0.90027 1.037598,-0.4425 2.5177,-0.86975 1.495362,-0.4425 3.540039,-0.88501 l 0,-1.34277 q 0,-1.57166 -0.701904,-2.31934 -0.701904,-0.76294 -2.212524,-0.76294 -0.823975,0 -1.403809,0.15259 -0.579834,0.15259 -0.808716,0.24414 l 0,2.71606 -2.273559,0 q -0.213623,0 -0.427246,-0.0305 -0.198365,-0.0305 -0.366211,-0.12207 -0.167847,-0.10682 -0.274658,-0.27466 -0.09155,-0.18311 -0.09155,-0.47302 0,-0.96131 0.579834,-1.64795 0.579834,-0.70191 1.51062,-1.15967 0.930786,-0.45777 2.090454,-0.67139 1.159668,-0.21362 2.319336,-0.21362 1.449585,0 2.39563,0.35095 0.961304,0.35095 1.51062,0.97656 0.564575,0.62561 0.793457,1.48011 0.228882,0.85449 0.228882,1.87683 l 0,8.75854 q 0,0.28992 0.183105,0.47302 0.198365,0.18311 0.473023,0.21363 l 1.51062,0.0916 0,1.2207 -4.623413,0 z m -0.411988,-8.34655 q -2.105712,0.53405 -3.341674,1.05285 -1.235962,0.5188 -1.876831,1.05286 -0.625611,0.5188 -0.808716,1.06811 -0.167847,0.53406 -0.167847,1.1139 0,0.48828 0.152588,0.9613 0.167847,0.45776 0.457764,0.82397 0.305175,0.36621 0.732422,0.5951 0.442504,0.21362 1.00708,0.21362 0.62561,0 1.296997,-0.22888 0.686645,-0.22888 1.25122,-0.50354 0.656128,-0.32044 1.296997,-0.74768 l 0,-5.40161 z" />
      <path
         id="path4215"
         style="font-style:normal;font-variant:normal;font-weight:normal;font-stretch:normal;font-size:31.25px;line-height:0%;font-family:'Abyssinica SIL';-inkscape-font-specification:'Abyssinica SIL, Normal';text-align:start;writing-mode:lr-tb;text-anchor:start;fill:#008000"
         d="m 68.995656,148.36488 0,-1.2207 1.663208,-0.0916 q 0.213623,0 0.442504,-0.21363 0.244141,-0.22888 0.244141,-0.4425 l 0,-18.81409 -2.380371,0 0,-1.03759 3.997803,-1.20545 1.281738,0 0,21.05713 q 0,0.21362 0.213623,0.4425 0.228882,0.21363 0.442505,0.21363 l 1.693725,0.0916 0,1.2207 -7.598876,0 z" />
      <path
         id="path4217"
         style="font-style:normal;font-variant:normal;font-weight:normal;font-stretch:normal;font-size:31.25px;line-height:0%;font-family:'Abyssinica SIL';-inkscape-font-specification:'Abyssinica SIL, Normal';text-align:start;writing-mode:lr-tb;text-anchor:start;fill:#008000"
         d="m 84.300221,128.14699 q 0,0.39673 -0.152588,0.76294 -0.137329,0.35095 -0.396728,0.61035 -0.2594,0.2594 -0.610352,0.41199 -0.335693,0.15258 -0.732422,0.15258 -0.396728,0 -0.762939,-0.15258 -0.350952,-0.15259 -0.610352,-0.41199 -0.259399,-0.2594 -0.411987,-0.61035 -0.152588,-0.36621 -0.152588,-0.76294 0,-0.39673 0.152588,-0.74768 0.152588,-0.35095 0.411987,-0.61035 0.2594,-0.2594 0.610352,-0.39673 0.366211,-0.15259 0.762939,-0.15259 0.396729,0 0.732422,0.15259 0.350952,0.13733 0.610352,0.39673 0.259399,0.2594 0.396728,0.61035 0.152588,0.35095 0.152588,0.74768 z m -5.737305,20.21789 0,-1.2207 1.525879,-0.0916 q 0.289917,-0.0305 0.473023,-0.21363 0.183105,-0.1831 0.183105,-0.47302 l 0,-11.15417 -2.151489,0 0,-1.09864 3.814697,-1.19018 1.235962,0 0,13.44299 q 0,0.28992 0.183106,0.47302 0.198364,0.18311 0.473022,0.21363 l 1.602173,0.0916 0,1.2207 -7.339478,0 z" />
      <path
         id="path4219"
         style="font-style:normal;font-variant:normal;font-weight:normal;font-stretch:normal;font-size:31.25px;line-height:0%;font-family:'Abyssinica SIL';-inkscape-font-specification:'Abyssinica SIL, Normal';text-align:start;writing-mode:lr-tb;text-anchor:start;fill:#008000"
         d="m 99.711598,135.39491 q 0.350952,0.56458 0.595092,1.23596 0.24414,0.65613 0.24414,1.57166 0,1.17493 -0.50354,2.09045 -0.503539,0.91553 -1.358031,1.5564 -0.839233,0.64087 -1.953125,0.97656 -1.098633,0.3357 -2.319336,0.3357 -0.152588,0 -0.305176,0 -0.152588,0 -0.305175,-0.0153 -0.198365,0.32043 -0.274659,0.68664 -0.06104,0.36621 -0.06104,0.68665 0,0.28992 0.03052,0.48828 0.03052,0.19836 0.04578,0.22888 0.701904,0.0763 1.602173,0.16785 0.900269,0.0915 1.831055,0.27466 0.946045,0.16784 1.846313,0.45776 0.915527,0.28992 1.617432,0.76294 0.7019,0.45776 1.12915,1.12915 0.44251,0.65613 0.44251,1.58691 0,1.1139 -0.64087,2.16675 -0.62561,1.06812 -1.724247,1.89209 -1.098633,0.83924 -2.578736,1.34278 -1.480102,0.50354 -3.173828,0.50354 -1.403808,0 -2.502441,-0.3357 -1.083374,-0.33569 -1.831055,-0.93078 -0.74768,-0.5951 -1.144409,-1.41907 -0.396729,-0.80872 -0.396729,-1.75476 0,-0.68665 0.198365,-1.31226 0.198364,-0.61035 0.610351,-1.11389 0.411988,-0.48828 1.022339,-0.83923 0.625611,-0.36621 1.480103,-0.5188 -0.09155,-0.24414 -0.152588,-0.39673 -0.06103,-0.16785 -0.106812,-0.30518 -0.03052,-0.15258 -0.04578,-0.30517 -0.01526,-0.16785 -0.01526,-0.42725 0,-0.61035 0.366211,-1.34277 0.38147,-0.74768 1.205444,-1.58692 -0.778198,-0.1831 -1.480102,-0.57983 -0.701904,-0.39673 -1.235962,-0.99182 -0.534058,-0.61035 -0.854492,-1.38855 -0.305176,-0.79346 -0.305176,-1.7395 0,-1.23596 0.457764,-2.21253 0.457763,-0.99182 1.281738,-1.67846 0.823975,-0.68665 1.968384,-1.05286 1.159668,-0.36621 2.563476,-0.36621 0.549317,0 1.068116,0.0916 0.534057,0.0915 0.991821,0.24414 0.473022,0.13733 0.869751,0.30518 0.396728,0.16784 0.701904,0.30517 l 4.211425,0 0,1.52588 -3.112792,0 z m -2.136231,2.62451 q 0,-0.73242 -0.198364,-1.41906 -0.183105,-0.70191 -0.549316,-1.22071 -0.366211,-0.53405 -0.915528,-0.85449 -0.534057,-0.32043 -1.235961,-0.32043 -0.656128,0 -1.205445,0.2594 -0.549316,0.2594 -0.946045,0.76294 -0.381469,0.48828 -0.610351,1.20544 -0.213623,0.71716 -0.213623,1.61743 0,0.7782 0.183105,1.4801 0.198364,0.68665 0.564575,1.20545 0.38147,0.5188 0.930786,0.82397 0.564576,0.30518 1.296998,0.30518 0.701904,0 1.235961,-0.30518 0.549317,-0.30517 0.915528,-0.82397 0.366211,-0.5188 0.549316,-1.2207 0.198364,-0.70191 0.198364,-1.49537 z m 1.754761,12.43592 q 0,-0.64087 -0.320434,-1.09864 -0.320435,-0.4425 -0.854493,-0.73242 -0.518798,-0.28991 -1.190185,-0.45776 -0.656128,-0.18311 -1.342774,-0.28992 -0.671386,-0.12207 -1.312255,-0.1831 -0.64087,-0.0763 -1.098633,-0.16785 -0.686646,0.24414 -1.144409,0.59509 -0.457764,0.3357 -0.732422,0.73242 -0.274658,0.39673 -0.396729,0.80872 -0.106811,0.41199 -0.106811,0.79346 0,0.56457 0.24414,1.20544 0.244141,0.64087 0.747681,1.17493 0.50354,0.53406 1.266479,0.88501 0.778199,0.36621 1.831055,0.36621 1.113892,0 1.937866,-0.36621 0.839234,-0.35095 1.38855,-0.88501 0.549317,-0.53406 0.808716,-1.17493 0.274658,-0.64087 0.274658,-1.20544 z" />
      <path
         id="path4221"
         style="font-style:normal;font-variant:normal;font-weight:normal;font-stretch:normal;font-size:31.25px;line-height:0%;font-family:'Abyssinica SIL';-inkscape-font-specification:'Abyssinica SIL, Normal';text-align:start;writing-mode:lr-tb;text-anchor:start;fill:#008000"
         d="m 113.50554,148.36488 0,-1.2207 1.31226,-0.0916 q 0.27466,-0.0305 0.45776,-0.21363 0.19837,-0.1831 0.19837,-0.47302 l 0,-8.13293 q 0,-1.48011 -0.68665,-2.24304 -0.68664,-0.7782 -2.31933,-0.7782 -0.90027,0 -1.77002,0.2594 -0.86975,0.24414 -1.66321,0.64087 l 0,10.2539 q 0,0.28992 0.1831,0.47302 0.18311,0.18311 0.47303,0.21363 l 1.31225,0.0916 0,1.2207 -7.06482,0 0,-1.2207 1.52588,-0.0916 q 0.28992,-0.0305 0.47302,-0.21363 0.18311,-0.1831 0.18311,-0.47302 l 0,-10.849 -2.18201,0 0,-1.02234 3.8147,-1.19018 1.28174,0 0,1.5564 q 0.65613,-0.36622 1.32751,-0.71717 0.68665,-0.35095 1.35803,-0.62561 0.67139,-0.27466 1.297,-0.42724 0.62561,-0.16785 1.17493,-0.16785 2.04468,0 3.11279,1.26648 1.06812,1.26648 1.06812,3.5553 l 0,8.62121 q 0,0.28992 0.1831,0.47302 0.19837,0.18311 0.47302,0.21363 l 1.3733,0.0916 0,1.2207 -6.89698,0 z" />
      <path
         id="path4223"
         style="font-style:normal;font-variant:normal;font-weight:normal;font-stretch:normal;font-size:31.25px;line-height:0%;font-family:'Abyssinica SIL';-inkscape-font-specification:'Abyssinica SIL, Normal';text-align:start;writing-mode:lr-tb;text-anchor:start;fill:#000080"
         d="m 132.38067,143.83302 q 0,1.14441 -0.41199,2.05994 -0.41199,0.91553 -1.17493,1.5564 -0.76294,0.62561 -1.87683,0.9613 -1.11389,0.33569 -2.50244,0.33569 -0.71716,0 -1.40381,-0.0916 -0.67139,-0.0763 -1.25122,-0.21362 -0.56458,-0.12207 -1.00708,-0.2594 -0.44251,-0.13733 -0.67139,-0.22888 l 0,-4.15039 1.58692,0 0.38147,2.65502 q 0.47302,0.30518 1.15966,0.5951 0.70191,0.27466 1.61744,0.27466 0.67138,0 1.19018,-0.19837 0.5188,-0.21362 0.86975,-0.54931 0.36621,-0.3357 0.54932,-0.76294 0.19836,-0.44251 0.19836,-0.91553 0,-0.65613 -0.2594,-1.11389 -0.2594,-0.47303 -0.74768,-0.83924 -0.48828,-0.38147 -1.20544,-0.73242 -0.70191,-0.35095 -1.60217,-0.79346 -0.8545,-0.41198 -1.51062,-0.80871 -0.65613,-0.41199 -1.1139,-0.86975 -0.4425,-0.47302 -0.67138,-1.02234 -0.22888,-0.56458 -0.22888,-1.26648 0,-1.0376 0.36621,-1.87683 0.38147,-0.83924 1.09863,-1.41907 0.71716,-0.59509 1.75476,-0.91553 1.05286,-0.32043 2.41089,-0.32043 0.68664,0 1.31225,0.0763 0.62562,0.0763 1.14441,0.18311 0.5188,0.10681 0.91553,0.22888 0.39673,0.12207 0.62561,0.22888 l 0,3.69263 -1.63269,0 -0.24414,-2.18201 q -0.33569,-0.2594 -0.99182,-0.48828 -0.65613,-0.22888 -1.38855,-0.22888 -1.297,0 -1.92261,0.59509 -0.61035,0.57984 -0.61035,1.49536 0,0.53406 0.16785,0.93079 0.1831,0.39673 0.57983,0.74768 0.41199,0.35095 1.06812,0.71716 0.67138,0.36621 1.6632,0.82398 0.82398,0.36621 1.51062,0.76294 0.68665,0.39673 1.19019,0.88501 0.50354,0.48828 0.7782,1.08337 0.28992,0.59509 0.28992,1.35803 z" />
      <path
         id="path4225"
         style="font-style:normal;font-variant:normal;font-weight:normal;font-stretch:normal;font-size:31.25px;line-height:0%;font-family:'Abyssinica SIL';-inkscape-font-specification:'Abyssinica SIL, Normal';text-align:start;writing-mode:lr-tb;text-anchor:start;fill:#000080"
         d="m 140.26946,128.14699 q 0,0.39673 -0.15259,0.76294 -0.13733,0.35095 -0.39673,0.61035 -0.2594,0.2594 -0.61035,0.41199 -0.33569,0.15258 -0.73242,0.15258 -0.39673,0 -0.76294,-0.15258 -0.35095,-0.15259 -0.61035,-0.41199 -0.2594,-0.2594 -0.41199,-0.61035 -0.15259,-0.36621 -0.15259,-0.76294 0,-0.39673 0.15259,-0.74768 0.15259,-0.35095 0.41199,-0.61035 0.2594,-0.2594 0.61035,-0.39673 0.36621,-0.15259 0.76294,-0.15259 0.39673,0 0.73242,0.15259 0.35095,0.13733 0.61035,0.39673 0.2594,0.2594 0.39673,0.61035 0.15259,0.35095 0.15259,0.74768 z m -5.73731,20.21789 0,-1.2207 1.52588,-0.0916 q 0.28992,-0.0305 0.47303,-0.21363 0.1831,-0.1831 0.1831,-0.47302 l 0,-11.15417 -2.15149,0 0,-1.09864 3.8147,-1.19018 1.23596,0 0,13.44299 q 0,0.28992 0.18311,0.47302 0.19836,0.18311 0.47302,0.21363 l 1.60217,0.0916 0,1.2207 -7.33948,0 z" />
      <path
         id="path4227"
         style="font-style:normal;font-variant:normal;font-weight:normal;font-stretch:normal;font-size:31.25px;line-height:0%;font-family:'Abyssinica SIL';-inkscape-font-specification:'Abyssinica SIL, Normal';text-align:start;writing-mode:lr-tb;text-anchor:start;fill:#000080"
         d="m 155.68084,135.39491 q 0.35095,0.56458 0.59509,1.23596 0.24414,0.65613 0.24414,1.57166 0,1.17493 -0.50354,2.09045 -0.50354,0.91553 -1.35803,1.5564 -0.83924,0.64087 -1.95313,0.97656 -1.09863,0.3357 -2.31933,0.3357 -0.15259,0 -0.30518,0 -0.15259,0 -0.30518,-0.0153 -0.19836,0.32043 -0.27465,0.68664 -0.061,0.36621 -0.061,0.68665 0,0.28992 0.0305,0.48828 0.0305,0.19836 0.0458,0.22888 0.7019,0.0763 1.60217,0.16785 0.90027,0.0915 1.83105,0.27466 0.94605,0.16784 1.84632,0.45776 0.91552,0.28992 1.61743,0.76294 0.7019,0.45776 1.12915,1.12915 0.4425,0.65613 0.4425,1.58691 0,1.1139 -0.64087,2.16675 -0.62561,1.06812 -1.72424,1.89209 -1.09863,0.83924 -2.57873,1.34278 -1.48011,0.50354 -3.17383,0.50354 -1.40381,0 -2.50244,-0.3357 -1.08338,-0.33569 -1.83106,-0.93078 -0.74768,-0.5951 -1.14441,-1.41907 -0.39673,-0.80872 -0.39673,-1.75476 0,-0.68665 0.19837,-1.31226 0.19836,-0.61035 0.61035,-1.11389 0.41199,-0.48828 1.02234,-0.83923 0.62561,-0.36621 1.4801,-0.5188 -0.0916,-0.24414 -0.15259,-0.39673 -0.061,-0.16785 -0.10681,-0.30518 -0.0305,-0.15258 -0.0458,-0.30517 -0.0153,-0.16785 -0.0153,-0.42725 0,-0.61035 0.36621,-1.34277 0.38147,-0.74768 1.20544,-1.58692 -0.7782,-0.1831 -1.4801,-0.57983 -0.70191,-0.39673 -1.23596,-0.99182 -0.53406,-0.61035 -0.85449,-1.38855 -0.30518,-0.79346 -0.30518,-1.7395 0,-1.23596 0.45776,-2.21253 0.45777,-0.99182 1.28174,-1.67846 0.82398,-0.68665 1.96839,-1.05286 1.15966,-0.36621 2.56347,-0.36621 0.54932,0 1.06812,0.0916 0.53405,0.0915 0.99182,0.24414 0.47302,0.13733 0.86975,0.30518 0.39673,0.16784 0.7019,0.30517 l 4.21143,0 0,1.52588 -3.11279,0 z m -2.13623,2.62451 q 0,-0.73242 -0.19837,-1.41906 -0.1831,-0.70191 -0.54931,-1.22071 -0.36622,-0.53405 -0.91553,-0.85449 -0.53406,-0.32043 -1.23596,-0.32043 -0.65613,0 -1.20545,0.2594 -0.54931,0.2594 -0.94604,0.76294 -0.38147,0.48828 -0.61036,1.20544 -0.21362,0.71716 -0.21362,1.61743 0,0.7782 0.18311,1.4801 0.19836,0.68665 0.56457,1.20545 0.38147,0.5188 0.93079,0.82397 0.56457,0.30518 1.297,0.30518 0.7019,0 1.23596,-0.30518 0.54931,-0.30517 0.91553,-0.82397 0.36621,-0.5188 0.54931,-1.2207 0.19837,-0.70191 0.19837,-1.49537 z m 1.75476,12.43592 q 0,-0.64087 -0.32044,-1.09864 -0.32043,-0.4425 -0.85449,-0.73242 -0.5188,-0.28991 -1.19019,-0.45776 -0.65612,-0.18311 -1.34277,-0.28992 -0.67139,-0.12207 -1.31226,-0.1831 -0.64086,-0.0763 -1.09863,-0.16785 -0.68664,0.24414 -1.14441,0.59509 -0.45776,0.3357 -0.73242,0.73242 -0.27466,0.39673 -0.39673,0.80872 -0.10681,0.41199 -0.10681,0.79346 0,0.56457 0.24414,1.20544 0.24414,0.64087 0.74768,1.17493 0.50354,0.53406 1.26648,0.88501 0.7782,0.36621 1.83106,0.36621 1.11389,0 1.93786,-0.36621 0.83924,-0.35095 1.38855,-0.88501 0.54932,-0.53406 0.80872,-1.17493 0.27466,-0.64087 0.27466,-1.20544 z" />
      <path
         id="path4229"
         style="font-style:normal;font-variant:normal;font-weight:normal;font-stretch:normal;font-size:31.25px;line-height:0%;font-family:'Abyssinica SIL';-inkscape-font-specification:'Abyssinica SIL, Normal';text-align:start;writing-mode:lr-tb;text-anchor:start;fill:#000080"
         d="m 169.47478,148.36488 0,-1.2207 1.31226,-0.0916 q 0.27466,-0.0305 0.45776,-0.21363 0.19837,-0.1831 0.19837,-0.47302 l 0,-8.13293 q 0,-1.48011 -0.68665,-2.24304 -0.68665,-0.7782 -2.31934,-0.7782 -0.90026,0 -1.77002,0.2594 -0.86975,0.24414 -1.6632,0.64087 l 0,10.2539 q 0,0.28992 0.1831,0.47302 0.18311,0.18311 0.47302,0.21363 l 1.31226,0.0916 0,1.2207 -7.06482,0 0,-1.2207 1.52588,-0.0916 q 0.28992,-0.0305 0.47302,-0.21363 0.18311,-0.1831 0.18311,-0.47302 l 0,-10.849 -2.18201,0 0,-1.02234 3.8147,-1.19018 1.28174,0 0,1.5564 q 0.65612,-0.36622 1.32751,-0.71717 0.68665,-0.35095 1.35803,-0.62561 0.67139,-0.27466 1.297,-0.42724 0.62561,-0.16785 1.17493,-0.16785 2.04467,0 3.11279,1.26648 1.06812,1.26648 1.06812,3.5553 l 0,8.62121 q 0,0.28992 0.1831,0.47302 0.19836,0.18311 0.47302,0.21363 l 1.37329,0.0916 0,1.2207 -6.89697,0 z" />
      <path
         id="path4231"
         style="font-style:normal;font-variant:normal;font-weight:normal;font-stretch:normal;font-size:31.25px;line-height:0%;font-family:'Abyssinica SIL';-inkscape-font-specification:'Abyssinica SIL, Normal';text-align:start;writing-mode:lr-tb;text-anchor:start;fill:#ff00ff"
         d="m 193.35479,135.21181 -1.46485,4.47082 5.0354,0 0,1.5564 -5.59997,0 -2.62451,7.84302 -1.5564,-0.50354 2.42615,-7.33948 -4.53186,0 -2.65503,7.84302 -1.52588,-0.53406 2.50244,-7.30896 -4.44031,0 0,-1.5564 4.94385,0 1.52588,-4.47082 -5.06592,0 0,-1.60218 5.59998,0 2.50244,-7.36999 1.58691,0.50354 -2.41089,6.86645 4.56238,0 2.47192,-7.36999 1.66321,0.50354 -2.38037,6.86645 4.37927,0 0,1.60218 -4.94384,0 z m -6.24085,0 -1.54114,4.47082 4.53186,0 1.54114,-4.47082 -4.53186,0 z" />
      <path
         id="path4233"
         style="font-style:normal;font-variant:normal;font-weight:normal;font-stretch:normal;font-size:31.25px;line-height:0%;font-family:'Abyssinica SIL';-inkscape-font-specification:'Abyssinica SIL, Normal';text-align:start;writing-mode:lr-tb;text-anchor:start;fill:#008080"
         d="m 215.23589,138.46193 q 0,2.05994 -0.36621,3.87573 -0.35095,1.80054 -1.17493,3.15857 -0.80871,1.34277 -2.12097,2.12097 -1.31226,0.7782 -3.2196,0.7782 -1.87684,0 -3.17383,-0.7782 -1.297,-0.7782 -2.12097,-2.12097 -0.80872,-1.35803 -1.17493,-3.15857 -0.36621,-1.81579 -0.36621,-3.87573 0,-2.05994 0.36621,-3.87573 0.38147,-1.8158 1.19019,-3.15857 0.82397,-1.34278 2.12097,-2.12097 1.29699,-0.7782 3.15857,-0.7782 1.89209,0 3.20434,0.7782 1.31226,0.77819 2.12097,2.12097 0.82398,1.34277 1.19019,3.15857 0.36621,1.81579 0.36621,3.87573 z m -3.40271,0 q 0,-1.5564 -0.13733,-2.92969 -0.12207,-1.37329 -0.50354,-2.38037 -0.36621,-1.02234 -1.05286,-1.60217 -0.68664,-0.59509 -1.78527,-0.59509 -1.08338,0 -1.75476,0.59509 -0.67139,0.57983 -1.05286,1.60217 -0.38147,1.00708 -0.5188,2.38037 -0.13733,1.37329 -0.13733,2.92969 0,1.5564 0.12207,2.92969 0.13733,1.37329 0.5188,2.39563 0.38147,1.00708 1.05286,1.60217 0.68664,0.59509 1.77002,0.59509 1.08337,0 1.75476,-0.59509 0.68664,-0.59509 1.06811,-1.60217 0.38147,-1.02234 0.5188,-2.39563 0.13733,-1.37329 0.13733,-2.92969 z" />
      <path
         id="path4235"
         style="fill:#800080;fill-opacity:1"
         d="m 239.71099,134.70827 -4.28772,13.65661 -2.21253,0 -3.69262,-11.68823 -4.11988,11.68823 -2.22778,0 -3.9978,-13.65661 -1.72425,-0.18311 0,-1.2207 6.8512,0 0,1.2207 -1.46484,0.0916 q -0.2594,0.0305 -0.41199,0.22889 -0.13733,0.19836 -0.061,0.45776 l 2.594,9.71985 4.02832,-11.71875 2.22778,0 3.61634,11.71875 2.88391,-9.71985 q 0.0763,-0.24414 -0.061,-0.4425 -0.12207,-0.21363 -0.38147,-0.24415 l -1.43432,-0.0916 0,-1.2207 5.46264,0 0,1.2207 -1.58691,0.18311 z" />
      <path
         id="path4237"
         style="fill:#800080;fill-opacity:1"
         d="m 248.42376,128.14699 q 0,0.39673 -0.15259,0.76294 -0.13733,0.35095 -0.39673,0.61035 -0.2594,0.2594 -0.61035,0.41199 -0.3357,0.15258 -0.73242,0.15258 -0.39673,0 -0.76294,-0.15258 -0.35096,-0.15259 -0.61035,-0.41199 -0.2594,-0.2594 -0.41199,-0.61035 -0.15259,-0.36621 -0.15259,-0.76294 0,-0.39673 0.15259,-0.74768 0.15259,-0.35095 0.41199,-0.61035 0.25939,-0.2594 0.61035,-0.39673 0.36621,-0.15259 0.76294,-0.15259 0.39672,0 0.73242,0.15259 0.35095,0.13733 0.61035,0.39673 0.2594,0.2594 0.39673,0.61035 0.15259,0.35095 0.15259,0.74768 z m -5.73731,20.21789 0,-1.2207 1.52588,-0.0916 q 0.28992,-0.0305 0.47302,-0.21363 0.18311,-0.1831 0.18311,-0.47302 l 0,-11.15417 -2.15149,0 0,-1.09864 3.8147,-1.19018 1.23596,0 0,13.44299 q 0,0.28992 0.1831,0.47302 0.19837,0.18311 0.47303,0.21363 l 1.60217,0.0916 0,1.2207 -7.33948,0 z" />
      <path
         id="path4239"
         style="fill:#800080;fill-opacity:1"
         d="m 262.98064,148.36488 0,-1.6632 q -0.53406,0.41198 -1.11389,0.79345 -0.56458,0.36621 -1.17493,0.64087 -0.59509,0.27466 -1.23596,0.44251 -0.62561,0.16784 -1.31226,0.16784 -1.57165,0 -2.71606,-0.67138 -1.12915,-0.68665 -1.86157,-1.75476 -0.73242,-1.08338 -1.08338,-2.41089 -0.33569,-1.34278 -0.33569,-2.67029 0,-1.58692 0.48828,-3.08228 0.48828,-1.51062 1.4801,-2.67028 0.99183,-1.15967 2.48719,-1.86158 1.49536,-0.7019 3.50952,-0.7019 0.36621,0 0.79346,0.0458 0.42724,0.0458 0.82397,0.10681 0.41199,0.0458 0.73242,0.12207 0.3357,0.061 0.5188,0.10681 l 0,-5.72205 -2.36511,0 0,-1.03759 4.02832,-1.20545 1.25122,0 0,21.02661 q 0,0.28992 0.18311,0.47302 0.1831,0.18311 0.47302,0.21363 l 1.34277,0.0916 0,1.2207 -4.91333,0 z m 0,-13.47351 q -0.19836,-0.061 -0.5188,-0.13733 -0.30517,-0.0916 -0.67138,-0.15258 -0.35096,-0.0763 -0.74769,-0.12207 -0.38147,-0.0458 -0.71716,-0.0458 -1.15967,0 -2.10571,0.45776 -0.94605,0.44251 -1.61743,1.26648 -0.65613,0.80872 -1.02234,1.96839 -0.35095,1.15966 -0.35095,2.57873 0,1.28174 0.30517,2.36511 0.30518,1.06812 0.88501,1.86158 0.57984,0.79345 1.41907,1.23596 0.83923,0.4425 1.92261,0.4425 0.47302,0 0.91552,-0.0915 0.44251,-0.10681 0.8545,-0.2594 0.41198,-0.16785 0.77819,-0.35095 0.36622,-0.19837 0.67139,-0.38147 l 0,-10.63538 z" />
      <path
         id="path4241"
         style="fill:#800080;fill-opacity:1"
         d="m 279.0634,147.70876 q -0.57983,0.28991 -1.26647,0.51879 -0.57984,0.19837 -1.34278,0.35096 -0.76294,0.16784 -1.60217,0.16784 -1.77002,0 -2.56348,-0.82397 -0.79345,-0.82398 -0.79345,-2.68555 l 0,-10.37597 -1.99891,0 0,-1.02234 2.13623,-1.00708 1.40381,-3.31116 1.37329,0 0,3.78418 4.40979,0 0,1.5564 -4.40979,0 0,8.72802 q 0,0.93079 0.15259,1.58692 0.16785,0.64087 0.47302,1.05285 0.32044,0.39673 0.7782,0.57984 0.47302,0.1831 1.09864,0.1831 0.45776,0 0.83923,-0.0763 0.39673,-0.0763 0.68664,-0.18311 0.3357,-0.12207 0.62561,-0.27466 l 0,1.25123 z" />
      <path
         id="path4243"
         style="fill:#800080;fill-opacity:1"
         d="m 289.59197,148.36488 0,-1.2207 1.28174,-0.0916 q 0.27466,-0.0305 0.47302,-0.21363 0.21362,-0.1831 0.21362,-0.47302 l 0,-8.05664 q 0,-0.67139 -0.15259,-1.23596 -0.13732,-0.56458 -0.50354,-0.97656 -0.35095,-0.41199 -0.94604,-0.64087 -0.59509,-0.24414 -1.49536,-0.24414 -0.41199,0 -0.86975,0.0763 -0.45777,0.061 -0.91553,0.18311 -0.4425,0.12207 -0.86975,0.28991 -0.41199,0.16785 -0.74768,0.35096 l 0,10.2539 q 0,0.28992 0.16785,0.47302 0.16784,0.18311 0.45776,0.21363 l 1.34277,0.0916 0,1.2207 -7.0343,0 0,-1.2207 1.49536,-0.0916 q 0.28992,-0.0305 0.47302,-0.21363 0.18311,-0.1831 0.18311,-0.47302 l 0,-18.78357 -2.33459,0 0,-1.03759 3.9978,-1.20545 1.25122,0 0,9.52149 q 0.42724,-0.2594 1.05286,-0.5951 0.62561,-0.33569 1.32751,-0.62561 0.71716,-0.30517 1.43433,-0.50354 0.73242,-0.21362 1.34277,-0.21362 0.90027,0 1.66321,0.28992 0.7782,0.28991 1.34277,0.86975 0.57983,0.57983 0.90027,1.4801 0.33569,0.88501 0.33569,2.09045 l 0,8.71277 q 0,0.28992 0.19837,0.47302 0.21362,0.18311 0.48828,0.21363 l 1.40381,0.0916 0,1.2207 -6.95801,0 z" />
      <path
         id="path4245"
         style="fill:#ff0000;fill-opacity:1"
         d="m 304.74395,146.99159 q 0,0.99182 -0.2594,1.86157 -0.2594,0.88501 -0.67139,1.61744 -0.41199,0.73242 -0.93079,1.29699 -0.51879,0.57984 -1.05285,0.97657 -0.5188,0.41198 -1.00708,0.62561 -0.47302,0.21362 -0.79346,0.21362 -0.2594,0 -0.36621,-0.10681 -0.0916,-0.10681 -0.0916,-0.27466 0,-0.0916 0.16784,-0.28992 0.18311,-0.1831 0.48828,-0.48828 0.94605,-0.91553 1.38855,-1.86157 0.44251,-0.93079 0.44251,-2.19727 -0.48828,0 -0.90027,-0.13733 -0.41199,-0.13732 -0.71716,-0.41198 -0.30518,-0.28992 -0.48828,-0.70191 -0.16785,-0.42724 -0.16785,-0.99182 0,-0.56457 0.15259,-1.02234 0.16784,-0.47302 0.47302,-0.80871 0.32044,-0.3357 0.74768,-0.5188 0.44251,-0.18311 0.99182,-0.18311 0.54932,0 1.02234,0.15259 0.48828,0.15259 0.82398,0.53406 0.35095,0.38147 0.54931,1.0376 0.19837,0.65612 0.19837,1.67846 z" />
      <path
         id="path4247"
         style="fill:#808000;fill-opacity:1"
         d="m 314.55535,145.95399 q 0,0.50354 -0.18311,0.94605 -0.1831,0.4425 -0.5188,0.76294 -0.32043,0.32043 -0.76294,0.5188 -0.42724,0.1831 -0.93078,0.1831 -0.50354,0 -0.94605,-0.1831 -0.4425,-0.19837 -0.7782,-0.5188 -0.32043,-0.32044 -0.50354,-0.76294 -0.1831,-0.44251 -0.1831,-0.94605 0,-0.50354 0.1831,-0.93078 0.18311,-0.44251 0.50354,-0.76294 0.3357,-0.33569 0.7782,-0.5188 0.44251,-0.18311 0.94605,-0.18311 0.50354,0 0.93078,0.18311 0.44251,0.18311 0.76294,0.5188 0.3357,0.32043 0.5188,0.76294 0.18311,0.42724 0.18311,0.93078 z" />
      <path
         id="path4249"
         style="fill:#808000;fill-opacity:1"
         d="m 334.25444,140.61342 q 0,1.84631 -0.54931,3.35693 -0.53406,1.49536 -1.5564,2.56348 -1.00708,1.05286 -2.48718,1.63269 -1.46484,0.57983 -3.31116,0.57983 -0.42724,0 -0.91553,-0.0458 -0.48828,-0.0305 -0.90026,-0.0916 -0.48829,-0.061 -0.96131,-0.15258 l 0,4.65393 q 0,0.28991 0.19837,0.45776 0.19836,0.16785 0.48828,0.19836 l 1.84631,0.19837 0,1.20544 -7.59888,0 0,-1.20544 1.49537,-0.19837 q 0.28991,-0.0305 0.47302,-0.19836 0.1831,-0.16785 0.1831,-0.45776 l 0,-17.59339 -2.15149,0 0,-1.02234 3.84522,-1.19018 1.2207,0 0,1.5564 q 0.67139,-0.53406 1.43433,-0.96131 0.65613,-0.36621 1.51062,-0.67139 0.85449,-0.30517 1.77002,-0.30517 1.20544,0 2.28882,0.54932 1.08337,0.54931 1.89209,1.55639 0.82397,1.00708 1.29699,2.42615 0.48828,1.41907 0.48828,3.15857 z m -3.12805,0.4425 q 0,-1.20544 -0.28991,-2.27356 -0.27466,-1.08337 -0.82398,-1.89209 -0.54932,-0.82397 -1.37329,-1.29699 -0.80872,-0.47303 -1.87683,-0.47303 -0.59509,0 -1.17493,0.15259 -0.56457,0.15259 -1.00708,0.32044 -0.5188,0.19836 -1.00708,0.45776 l 0,10.75745 q 0.36621,0.13733 0.7782,0.24414 0.35095,0.0916 0.80872,0.16784 0.45776,0.0763 0.94604,0.0763 1.28174,0 2.22778,-0.5188 0.94605,-0.5188 1.5564,-1.37329 0.62561,-0.86975 0.93079,-1.9989 0.30517,-1.12915 0.30517,-2.34986 z" />
      <path
         id="path4251"
         style="fill:#808000;fill-opacity:1"
         d="m 346.04949,136.49355 q -0.30518,-0.35096 -0.70191,-0.5951 -0.39672,-0.2594 -0.97656,-0.2594 -0.76294,0 -1.54114,0.5188 -0.77819,0.50354 -1.58691,1.41907 l 0,8.78906 q 0,0.28992 0.18311,0.47302 0.1831,0.18311 0.47302,0.21363 l 2.05993,0.0916 0,1.2207 -7.8125,0 0,-1.19018 1.54114,-0.12207 q 0.27466,-0.0305 0.45777,-0.21363 0.19836,-0.1831 0.19836,-0.47302 l 0,-10.849 -2.2583,0 0,-1.02234 3.87573,-1.19018 1.28174,0 0,2.7771 q 0.33569,-0.36621 0.80872,-0.90027 0.48828,-0.54932 1.03759,-1.05286 0.54932,-0.50354 1.12915,-0.85449 0.5951,-0.35095 1.14441,-0.35095 0.24414,0 0.5188,0.0458 0.27466,0.0458 0.53406,0.12207 0.2594,0.061 0.47302,0.15258 0.22888,0.0763 0.38147,0.15259 l 0,3.09754 -1.2207,0 z" />
      <path
         id="path4253"
         style="fill:#808000;fill-opacity:1"
         d="m 361.88811,146.80849 q -0.65613,0.41198 -1.37329,0.76294 -0.7019,0.35095 -1.46484,0.61035 -0.74768,0.2594 -1.52588,0.41199 -0.7782,0.15258 -1.57166,0.15258 -1.41906,0 -2.73132,-0.47302 -1.31226,-0.48828 -2.31934,-1.44958 -0.99182,-0.96131 -1.60217,-2.41089 -0.59509,-1.46485 -0.59509,-3.41797 0,-1.83106 0.54931,-3.31116 0.54932,-1.49536 1.52588,-2.54822 0.97657,-1.06811 2.31934,-1.63269 1.34277,-0.57983 2.94495,-0.57983 1.44958,0 2.54821,0.48828 1.09864,0.47302 1.83106,1.32751 0.73242,0.83924 1.09863,2.02942 0.36621,1.17493 0.36621,2.56348 0,0.16785 0,0.41199 0,0.24414 -0.0305,0.45776 l -10.13183,0 q 0,1.19019 0.24414,2.38037 0.2594,1.19019 0.85449,2.13623 0.59509,0.94605 1.60217,1.54114 1.00708,0.57983 2.5177,0.57983 0.67139,0 1.32752,-0.16784 0.65613,-0.18311 1.28174,-0.45777 0.64087,-0.27465 1.2207,-0.61035 0.57983,-0.35095 1.11389,-0.7019 l 0,1.90735 z m -3.12805,-8.69751 q 0,-0.7782 -0.18311,-1.43433 -0.1831,-0.67139 -0.56457,-1.15967 -0.36621,-0.48828 -0.94605,-0.76294 -0.56457,-0.28991 -1.34277,-0.28991 -0.7782,0 -1.44958,0.30517 -0.67139,0.28992 -1.19019,0.85449 -0.50354,0.56458 -0.82397,1.3733 -0.30518,0.79345 -0.36622,1.80053 l 6.86646,0 0,-0.68664 z" />
      <path
         id="path4255"
         style="fill:#808000;fill-opacity:1"
         d="m 376.46026,147.20522 q -0.53406,0.27465 -1.12916,0.56457 -0.57983,0.27466 -1.25122,0.48828 -0.65612,0.21362 -1.38855,0.35095 -0.71716,0.13733 -1.51062,0.13733 -1.64795,0 -2.97546,-0.57983 -1.31226,-0.59509 -2.24304,-1.63269 -0.93079,-1.05286 -1.43433,-2.48718 -0.50354,-1.43433 -0.50354,-3.1128 0,-1.96838 0.61035,-3.46374 0.61036,-1.49536 1.64795,-2.50244 1.0376,-1.02234 2.39563,-1.52588 1.37329,-0.5188 2.86866,-0.5188 1.02233,0 1.90734,0.21362 0.90027,0.19837 1.54114,0.59509 0.65613,0.39673 1.02234,0.97657 0.38147,0.57983 0.38147,1.34277 0,0.45776 -0.16785,0.80872 -0.15258,0.33569 -0.41198,0.57983 -0.2594,0.22888 -0.5951,0.35095 -0.32043,0.10681 -0.67138,0.10681 -0.5188,0 -0.90027,-0.16784 -0.38147,-0.18311 -0.67139,-0.36621 l 0,-2.71607 q -0.32043,-0.1831 -0.67139,-0.28991 -0.33569,-0.12208 -0.64086,-0.12208 -1.0376,0 -1.87684,0.47303 -0.82397,0.47302 -1.4038,1.31225 -0.56458,0.83924 -0.86976,1.9989 -0.30517,1.14441 -0.30517,2.50245 0,1.29699 0.32043,2.4414 0.3357,1.14441 0.97657,1.9989 0.65612,0.83924 1.61743,1.32752 0.97656,0.48828 2.2583,0.48828 1.09863,0 2.07519,-0.33569 0.99183,-0.35096 1.99891,-1.02234 l 0,1.32751 0,0.45777 z" />
      <path
         id="path4257"
         style="fill:#808000;fill-opacity:1"
         d="m 384.28801,128.14699 q 0,0.39673 -0.15258,0.76294 -0.13733,0.35095 -0.39673,0.61035 -0.2594,0.2594 -0.61035,0.41199 -0.3357,0.15258 -0.73243,0.15258 -0.39672,0 -0.76294,-0.15258 -0.35095,-0.15259 -0.61035,-0.41199 -0.2594,-0.2594 -0.41198,-0.61035 -0.15259,-0.36621 -0.15259,-0.76294 0,-0.39673 0.15259,-0.74768 0.15258,-0.35095 0.41198,-0.61035 0.2594,-0.2594 0.61035,-0.39673 0.36622,-0.15259 0.76294,-0.15259 0.39673,0 0.73243,0.15259 0.35095,0.13733 0.61035,0.39673 0.2594,0.2594 0.39673,0.61035 0.15258,0.35095 0.15258,0.74768 z m -5.7373,20.21789 0,-1.2207 1.52588,-0.0916 q 0.28992,-0.0305 0.47302,-0.21363 0.18311,-0.1831 0.18311,-0.47302 l 0,-11.15417 -2.15149,0 0,-1.09864 3.81469,-1.19018 1.23597,0 0,13.44299 q 0,0.28992 0.1831,0.47302 0.19837,0.18311 0.47302,0.21363 l 1.60218,0.0916 0,1.2207 -7.33948,0 z" />
      <path
         id="path4259"
         style="fill:#808000;fill-opacity:1"
         d="m 398.31084,143.83302 q 0,1.14441 -0.41199,2.05994 -0.41198,0.91553 -1.17492,1.5564 -0.76294,0.62561 -1.87683,0.9613 -1.1139,0.33569 -2.50245,0.33569 -0.71716,0 -1.4038,-0.0916 -0.67139,-0.0763 -1.25122,-0.21362 -0.56458,-0.12207 -1.00708,-0.2594 -0.44251,-0.13733 -0.67139,-0.22888 l 0,-4.15039 1.58691,0 0.38147,2.65502 q 0.47302,0.30518 1.15967,0.5951 0.7019,0.27466 1.61743,0.27466 0.67139,0 1.19019,-0.19837 0.5188,-0.21362 0.86975,-0.54931 0.36621,-0.3357 0.54931,-0.76294 0.19837,-0.44251 0.19837,-0.91553 0,-0.65613 -0.2594,-1.11389 -0.2594,-0.47303 -0.74768,-0.83924 -0.48828,-0.38147 -1.20545,-0.73242 -0.7019,-0.35095 -1.60217,-0.79346 -0.85449,-0.41198 -1.51062,-0.80871 -0.65613,-0.41199 -1.11389,-0.86975 -0.4425,-0.47302 -0.67139,-1.02234 -0.22888,-0.56458 -0.22888,-1.26648 0,-1.0376 0.36621,-1.87683 0.38147,-0.83924 1.09864,-1.41907 0.71716,-0.59509 1.75476,-0.91553 1.05285,-0.32043 2.41088,-0.32043 0.68665,0 1.31226,0.0763 0.62561,0.0763 1.14441,0.18311 0.5188,0.10681 0.91553,0.22888 0.39673,0.12207 0.62561,0.22888 l 0,3.69263 -1.63269,0 -0.24414,-2.18201 q -0.3357,-0.2594 -0.99182,-0.48828 -0.65613,-0.22888 -1.38855,-0.22888 -1.297,0 -1.92261,0.59509 -0.61035,0.57984 -0.61035,1.49536 0,0.53406 0.16784,0.93079 0.18311,0.39673 0.57984,0.74768 0.41198,0.35095 1.06811,0.71716 0.67139,0.36621 1.66321,0.82398 0.82397,0.36621 1.51062,0.76294 0.68665,0.39673 1.19019,0.88501 0.50354,0.48828 0.77819,1.08337 0.28992,0.59509 0.28992,1.35803 z" />
      <path
         id="path4261"
         style="fill:#808000;fill-opacity:1"
         d="m 406.19964,128.14699 q 0,0.39673 -0.15259,0.76294 -0.13733,0.35095 -0.39673,0.61035 -0.2594,0.2594 -0.61035,0.41199 -0.3357,0.15258 -0.73242,0.15258 -0.39673,0 -0.76294,-0.15258 -0.35096,-0.15259 -0.61036,-0.41199 -0.2594,-0.2594 -0.41198,-0.61035 -0.15259,-0.36621 -0.15259,-0.76294 0,-0.39673 0.15259,-0.74768 0.15258,-0.35095 0.41198,-0.61035 0.2594,-0.2594 0.61036,-0.39673 0.36621,-0.15259 0.76294,-0.15259 0.39672,0 0.73242,0.15259 0.35095,0.13733 0.61035,0.39673 0.2594,0.2594 0.39673,0.61035 0.15259,0.35095 0.15259,0.74768 z m -5.73731,20.21789 0,-1.2207 1.52588,-0.0916 q 0.28992,-0.0305 0.47302,-0.21363 0.18311,-0.1831 0.18311,-0.47302 l 0,-11.15417 -2.15149,0 0,-1.09864 3.8147,-1.19018 1.23596,0 0,13.44299 q 0,0.28992 0.1831,0.47302 0.19837,0.18311 0.47303,0.21363 l 1.60217,0.0916 0,1.2207 -7.33948,0 z" />
      <path
         id="path4263"
         style="fill:#808000;fill-opacity:1"
         d="m 424.78484,140.85756 q 0,1.66321 -0.53406,3.11279 -0.5188,1.43433 -1.49536,2.50244 -0.9613,1.05286 -2.34985,1.66321 -1.37329,0.61035 -3.08228,0.61035 -1.70898,0 -3.08227,-0.59509 -1.37329,-0.61035 -2.3346,-1.66321 -0.9613,-1.05285 -1.4801,-2.48718 -0.50354,-1.44959 -0.50354,-3.14331 0,-1.66321 0.5188,-3.11279 0.5188,-1.44959 1.49536,-2.5177 0.97656,-1.08338 2.34985,-1.69373 1.38855,-0.61035 3.12805,-0.61035 1.73951,0 3.1128,0.62561 1.37329,0.62561 2.31933,1.70898 0.94605,1.06812 1.43433,2.5177 0.50354,1.43433 0.50354,3.08228 z m -3.25012,-0.0305 q 0,-1.28174 -0.2594,-2.45666 -0.24414,-1.17493 -0.76294,-2.0752 -0.5188,-0.90027 -1.297,-1.43432 -0.7782,-0.53406 -1.83105,-0.53406 -1.08338,0 -1.87683,0.53406 -0.79346,0.53405 -1.31226,1.43432 -0.50354,0.90027 -0.74768,2.0752 -0.24414,1.17492 -0.24414,2.45666 0,1.26648 0.24414,2.44141 0.2594,1.17492 0.7782,2.07519 0.5188,0.90027 1.297,1.44959 0.77819,0.53406 1.83105,0.53406 1.06812,0 1.86157,-0.53406 0.79346,-0.53406 1.297,-1.43433 0.5188,-0.90027 0.76294,-2.07519 0.2594,-1.17493 0.2594,-2.45667 z" />
      <path
         id="path4265"
         style="fill:#808000;fill-opacity:1"
         d="m 436.01531,148.36488 0,-1.2207 1.31225,-0.0916 q 0.27466,-0.0305 0.45777,-0.21363 0.19836,-0.1831 0.19836,-0.47302 l 0,-8.13293 q 0,-1.48011 -0.68664,-2.24304 -0.68665,-0.7782 -2.31934,-0.7782 -0.90027,0 -1.77002,0.2594 -0.86975,0.24414 -1.66321,0.64087 l 0,10.2539 q 0,0.28992 0.18311,0.47302 0.1831,0.18311 0.47302,0.21363 l 1.31226,0.0916 0,1.2207 -7.06482,0 0,-1.2207 1.52588,-0.0916 q 0.28991,-0.0305 0.47302,-0.21363 0.1831,-0.1831 0.1831,-0.47302 l 0,-10.849 -2.182,0 0,-1.02234 3.8147,-1.19018 1.28173,0 0,1.5564 q 0.65613,-0.36622 1.32752,-0.71717 0.68664,-0.35095 1.35803,-0.62561 0.67139,-0.27466 1.297,-0.42724 0.62561,-0.16785 1.17492,-0.16785 2.04468,0 3.1128,1.26648 1.06811,1.26648 1.06811,3.5553 l 0,8.62121 q 0,0.28992 0.18311,0.47302 0.19836,0.18311 0.47302,0.21363 l 1.37329,0.0916 0,1.2207 -6.89697,0 z" />
      <path
         id="path4267"
         style="fill:#0000ff;fill-opacity:1"
         d="m 453.92913,147.70876 q -0.57984,0.28991 -1.26648,0.51879 -0.57984,0.19837 -1.34278,0.35096 -0.76294,0.16784 -1.60217,0.16784 -1.77002,0 -2.56348,-0.82397 -0.79345,-0.82398 -0.79345,-2.68555 l 0,-10.37597 -1.9989,0 0,-1.02234 2.13623,-1.00708 1.40381,-3.31116 1.37329,0 0,3.78418 4.40979,0 0,1.5564 -4.40979,0 0,8.72802 q 0,0.93079 0.15258,1.58692 0.16785,0.64087 0.47303,1.05285 0.32043,0.39673 0.7782,0.57984 0.47302,0.1831 1.09863,0.1831 0.45776,0 0.83923,-0.0763 0.39673,-0.0763 0.68665,-0.18311 0.33569,-0.12207 0.62561,-0.27466 l 0,1.25123 z" />
      <path
         id="path4269"
         style="fill:#0000ff;fill-opacity:1"
         d="m 468.82171,134.70827 -5.99671,14.61792 q -0.15259,0.38147 -0.42724,1.02234 -0.27466,0.64087 -0.65613,1.35803 -0.36621,0.73242 -0.82398,1.43432 -0.4425,0.70191 -0.93078,1.19019 -0.56458,0.56458 -1.25122,0.86975 -0.67139,0.32044 -1.46485,0.32044 -0.54931,0 -0.97656,-0.15259 -0.42725,-0.13733 -0.71716,-0.38147 -0.28992,-0.24414 -0.44251,-0.57984 -0.15259,-0.32043 -0.15259,-0.67138 0,-0.53406 0.22889,-0.99182 0.24414,-0.44251 0.77819,-0.88501 l 2.92969,1.34277 q 0.38147,-0.38147 0.7782,-1.00708 0.39673,-0.61035 0.74768,-1.297 0.35095,-0.68664 0.64087,-1.37329 0.28992,-0.67139 0.45776,-1.19018 l -5.31006,-13.6261 -1.72424,-0.18311 0,-1.2207 6.91223,0 0,1.2207 -1.49536,0.0916 q -0.2594,0.0305 -0.41199,0.22889 -0.15258,0.19836 -0.061,0.45776 l 3.63159,9.21631 3.70789,-9.21631 q 0.10681,-0.24414 -0.0305,-0.4425 -0.13733,-0.21363 -0.39673,-0.24415 l -1.4801,-0.0916 0,-1.2207 5.56946,0 0,1.2207 -1.63269,0.18311 z" />
      <path
         id="path4271"
         style="fill:#0000ff;fill-opacity:1"
         d="m 487.14751,140.61342 q 0,1.84631 -0.54932,3.35693 -0.53405,1.49536 -1.55639,2.56348 -1.00708,1.05286 -2.48718,1.63269 -1.46485,0.57983 -3.31116,0.57983 -0.42725,0 -0.91553,-0.0458 -0.48828,-0.0305 -0.90027,-0.0916 -0.48828,-0.061 -0.9613,-0.15258 l 0,4.65393 q 0,0.28991 0.19836,0.45776 0.19837,0.16785 0.48828,0.19836 l 1.84632,0.19837 0,1.20544 -7.59888,0 0,-1.20544 1.49536,-0.19837 q 0.28992,-0.0305 0.47302,-0.19836 0.18311,-0.16785 0.18311,-0.45776 l 0,-17.59339 -2.15149,0 0,-1.02234 3.84522,-1.19018 1.2207,0 0,1.5564 q 0.67139,-0.53406 1.43432,-0.96131 0.65613,-0.36621 1.51062,-0.67139 0.8545,-0.30517 1.77002,-0.30517 1.20545,0 2.28882,0.54932 1.08338,0.54931 1.89209,1.55639 0.82398,1.00708 1.297,2.42615 0.48828,1.41907 0.48828,3.15857 z m -3.12805,0.4425 q 0,-1.20544 -0.28992,-2.27356 -0.27466,-1.08337 -0.82397,-1.89209 -0.54932,-0.82397 -1.37329,-1.29699 -0.80872,-0.47303 -1.87683,-0.47303 -0.5951,0 -1.17493,0.15259 -0.56458,0.15259 -1.00708,0.32044 -0.5188,0.19836 -1.00708,0.45776 l 0,10.75745 q 0.36621,0.13733 0.7782,0.24414 0.35095,0.0916 0.80871,0.16784 0.45777,0.0763 0.94605,0.0763 1.28174,0 2.22778,-0.5188 0.94605,-0.5188 1.5564,-1.37329 0.62561,-0.86975 0.93078,-1.9989 0.30518,-1.12915 0.30518,-2.34986 z" />
      <path
         id="path4273"
         style="fill:#0000ff;fill-opacity:1"
         d="m 502.51311,146.80849 q -0.65613,0.41198 -1.37329,0.76294 -0.7019,0.35095 -1.46484,0.61035 -0.74768,0.2594 -1.52588,0.41199 -0.7782,0.15258 -1.57166,0.15258 -1.41906,0 -2.73132,-0.47302 -1.31226,-0.48828 -2.31934,-1.44958 -0.99182,-0.96131 -1.60217,-2.41089 -0.59509,-1.46485 -0.59509,-3.41797 0,-1.83106 0.54931,-3.31116 0.54932,-1.49536 1.52588,-2.54822 0.97657,-1.06811 2.31934,-1.63269 1.34277,-0.57983 2.94495,-0.57983 1.44958,0 2.54821,0.48828 1.09864,0.47302 1.83106,1.32751 0.73242,0.83924 1.09863,2.02942 0.36621,1.17493 0.36621,2.56348 0,0.16785 0,0.41199 0,0.24414 -0.0305,0.45776 l -10.13183,0 q 0,1.19019 0.24414,2.38037 0.2594,1.19019 0.85449,2.13623 0.59509,0.94605 1.60217,1.54114 1.00708,0.57983 2.5177,0.57983 0.67139,0 1.32752,-0.16784 0.65613,-0.18311 1.28174,-0.45777 0.64087,-0.27465 1.2207,-0.61035 0.57983,-0.35095 1.11389,-0.7019 l 0,1.90735 z m -3.12805,-8.69751 q 0,-0.7782 -0.18311,-1.43433 -0.1831,-0.67139 -0.56457,-1.15967 -0.36621,-0.48828 -0.94605,-0.76294 -0.56457,-0.28991 -1.34277,-0.28991 -0.7782,0 -1.44958,0.30517 -0.67139,0.28992 -1.19019,0.85449 -0.50354,0.56458 -0.82397,1.3733 -0.30518,0.79345 -0.36622,1.80053 l 6.86646,0 0,-0.68664 z" />
    </g>
    <flowRoot
       style="font-style:normal;font-variant:normal;font-weight:normal;font-stretch:normal;font-size:11.25px;line-height:0%;font-family:'Abyssinica SIL';-inkscape-font-specification:'Abyssinica SIL, Normal';text-align:start;letter-spacing:0px;word-spacing:0px;writing-mode:lr-tb;text-anchor:start;fill:#000000;fill-opacity:1;stroke:none;stroke-width:1px;stroke-linecap:butt;stroke-linejoin:miter;stroke-opacity:1"
       id="flowRoot4160"
       xml:space="preserve"><flowRegion
         id="flowRegion4162"><rect
           y="96.647919"
           x="92.85714"
           height="168.57143"
           width="925.71429"
           id="rect4164" /></flowRegion><flowPara
         id="flowPara4166" /></flowRoot>    <flowRoot
       style="font-style:normal;font-weight:normal;font-size:40px;line-height:125%;font-family:sans-serif;letter-spacing:0px;word-spacing:0px;fill:#000000;fill-opacity:1;stroke:none;stroke-width:1px;stroke-linecap:butt;stroke-linejoin:miter;stroke-opacity:1"
       id="flowRoot3363"
       xml:space="preserve"><flowRegion
         id="flowRegion3365"><rect
           y="-9.929307"
           x="455.71429"
           height="197.85715"
           width="130"
           id="rect3367" /></flowRegion><flowPara
         id="flowPara3369" /></flowRoot>  </g>
</svg>
