<?xml version="1.0" encoding="UTF-8" standalone="no"?>
<svg
   xmlns:dc="http://purl.org/dc/elements/1.1/"
   xmlns:cc="http://creativecommons.org/ns#"
   xmlns:rdf="http://www.w3.org/1999/02/22-rdf-syntax-ns#"
   xmlns:svg="http://www.w3.org/2000/svg"
   xmlns="http://www.w3.org/2000/svg"
   width="132.41286mm"
   height="24.694237mm"
   viewBox="0 0 469.17941 87.499264"
   id="svg4413"
   version="1.1">
  <defs
     id="defs4415" />
  <metadata
     id="metadata4418">
    <rdf:RDF>
      <cc:Work
         rdf:about="">
        <dc:format>image/svg+xml</dc:format>
        <dc:type
           rdf:resource="http://purl.org/dc/dcmitype/StillImage" />
        <dc:title></dc:title>
      </cc:Work>
    </rdf:RDF>
  </metadata>
  <g
     id="layer1"
     transform="translate(5.7892207,2.7644137)">
    <g
       id="text4144"
       style="font-style:normal;font-variant:normal;font-weight:normal;font-stretch:normal;font-size:11.25px;line-height:0%;font-family:'Abyssinica SIL';-inkscape-font-specification:'Abyssinica SIL, Normal';text-align:start;letter-spacing:0px;word-spacing:0px;writing-mode:lr-tb;text-anchor:start;fill:#000000;fill-opacity:1;stroke:none;stroke-width:1px;stroke-linecap:butt;stroke-linejoin:miter;stroke-opacity:1">
      <path
         id="path3356"
         style="font-style:normal;font-variant:normal;font-weight:normal;font-stretch:normal;font-size:31.25px;line-height:0%;font-family:'Abyssinica SIL';-inkscape-font-specification:'Abyssinica SIL, Normal';text-align:start;writing-mode:lr-tb;text-anchor:start"
         d="m 23.142525,41.822849 q -0.823975,0 -1.632691,-0.06103 -0.808716,-0.06104 -1.525879,-0.228882 -0.717163,-0.152588 -1.312255,-0.411987 -0.579834,-0.259399 -0.961304,-0.671387 -0.442505,-0.473022 -0.701904,-1.022339 -0.2594,-0.534057 -0.396729,-1.12915 -0.12207,-0.579834 -0.152588,-1.205444 -0.03052,-0.640869 -0.03052,-1.296997 l 0,-1.617432 q 0,-0.488281 -0.03052,-1.022339 -0.01526,-0.534058 -0.106812,-1.037598 -0.09155,-0.50354 -0.274658,-0.930786 -0.167846,-0.442505 -0.473022,-0.74768 -0.274658,-0.274659 -0.625611,-0.427246 -0.350952,-0.167847 -0.793457,-0.2594 -0.427246,-0.09155 -0.976562,-0.12207 -0.534058,-0.03052 -1.220703,-0.03052 l 0,-1.403808 q 0.686645,0 1.220703,-0.03052 0.549316,-0.03052 0.976562,-0.12207 0.442505,-0.09155 0.793457,-0.244141 0.350953,-0.167847 0.625611,-0.442505 0.305176,-0.289917 0.473022,-0.732422 0.183106,-0.442505 0.274658,-0.946045 0.09155,-0.50354 0.106812,-1.037597 0.03052,-0.534058 0.03052,-1.022339 l 0,-1.617432 q 0,-0.656128 0.03052,-1.281738 0.03052,-0.62561 0.152588,-1.220703 0.137329,-0.595093 0.396729,-1.129151 0.259399,-0.549316 0.701904,-1.022338 0.38147,-0.411988 0.961304,-0.671387 0.595092,-0.2594 1.312255,-0.411987 0.717163,-0.167847 1.525879,-0.228882 0.808716,-0.06103 1.632691,-0.06103 l 0,1.281738 q -0.198365,0 -0.610352,0.03052 -0.411987,0.03052 -0.900268,0.122071 -0.473023,0.09155 -0.930787,0.289917 -0.457763,0.183105 -0.74768,0.50354 -0.2594,0.274658 -0.411987,0.656128 -0.13733,0.381469 -0.213624,0.823974 -0.07629,0.442505 -0.106811,0.946045 -0.01526,0.50354 -0.01526,1.022339 l 0,1.174927 q 0,0.534058 -0.03052,1.12915 -0.01526,0.579834 -0.106812,1.159668 -0.09155,0.564575 -0.274658,1.083374 -0.167847,0.50354 -0.488281,0.900269 -0.625611,0.808716 -1.495362,1.190185 -0.854492,0.38147 -1.815796,0.595093 0.961304,0.213623 1.815796,0.610352 0.869751,0.396728 1.495362,1.205444 0.320434,0.396729 0.488281,0.915527 0.183105,0.50354 0.274658,1.083374 0.09155,0.564576 0.106812,1.159668 0.03052,0.579834 0.03052,1.113892 l 0,1.174927 q 0,0.518799 0.01526,1.022339 0.03052,0.50354 0.106811,0.946045 0.07629,0.442504 0.213624,0.823974 0.152587,0.38147 0.411987,0.656128 0.289917,0.320435 0.74768,0.50354 0.457764,0.198364 0.930787,0.289917 0.488281,0.09155 0.900268,0.12207 0.411987,0.03052 0.610352,0.03052 l 0,0.976562 0,0.305176 z" />
      <path
         id="path3358"
         style="font-style:normal;font-variant:normal;font-weight:normal;font-stretch:normal;font-size:31.25px;line-height:0%;font-family:'Abyssinica SIL';-inkscape-font-specification:'Abyssinica SIL, Normal';text-align:start;writing-mode:lr-tb;text-anchor:start;fill:#800000"
         d="m 35.441109,37.977634 0,-1.220703 1.312256,-0.09155 q 0.274658,-0.03052 0.457763,-0.213623 0.198364,-0.183106 0.198364,-0.473023 l 0,-8.132935 q 0,-1.480102 -0.686645,-2.243041 -0.686646,-0.778199 -2.319336,-0.778199 -0.900269,0 -1.770019,0.2594 -0.869751,0.24414 -1.663208,0.640869 l 0,10.253906 q 0,0.289917 0.183105,0.473023 0.183105,0.183105 0.473022,0.213623 l 1.312256,0.09155 0,1.220703 -7.064819,0 0,-1.220703 1.525879,-0.09155 q 0.289917,-0.03052 0.473022,-0.213623 0.183106,-0.183106 0.183106,-0.473023 l 0,-10.848999 -2.182007,0 0,-1.022339 3.814697,-1.190185 1.281739,0 0,1.556396 q 0.656127,-0.366211 1.327514,-0.717163 0.686646,-0.350952 1.358032,-0.62561 0.671387,-0.274659 1.296997,-0.427246 0.625611,-0.167847 1.174927,-0.167847 2.044678,0 3.112793,1.266479 1.068115,1.26648 1.068115,3.555298 l 0,8.621216 q 0,0.289917 0.183106,0.473023 0.198364,0.183105 0.473022,0.213623 l 1.373291,0.09155 0,1.220703 -6.896972,0 z" />
      <path
         id="path3360"
         style="font-style:normal;font-variant:normal;font-weight:normal;font-stretch:normal;font-size:31.25px;line-height:0%;font-family:'Abyssinica SIL';-inkscape-font-specification:'Abyssinica SIL, Normal';text-align:start;writing-mode:lr-tb;text-anchor:start;fill:#800000"
         d="m 53.705879,37.977634 -0.411987,-1.846313 q -0.823975,0.62561 -1.693726,1.113892 -0.381469,0.213623 -0.808715,0.411987 -0.427247,0.198364 -0.88501,0.350952 -0.442505,0.167847 -0.915528,0.259399 -0.457763,0.09155 -0.915527,0.09155 -0.854492,0 -1.602173,-0.289917 -0.732422,-0.289917 -1.281738,-0.839233 -0.549316,-0.549317 -0.869751,-1.327515 -0.305176,-0.778198 -0.305176,-1.770019 0,-0.579834 0.106812,-1.098633 0.12207,-0.518799 0.473022,-1.00708 0.350952,-0.488282 0.976563,-0.930786 0.640869,-0.457764 1.663208,-0.900269 1.037597,-0.442505 2.5177,-0.869751 1.495361,-0.442505 3.540039,-0.88501 l 0,-1.342773 q 0,-1.571655 -0.701904,-2.319336 -0.701905,-0.76294 -2.212525,-0.76294 -0.823974,0 -1.403808,0.152588 -0.579834,0.152588 -0.808716,0.244141 l 0,2.716064 -2.27356,0 q -0.213623,0 -0.427246,-0.03052 -0.198364,-0.03052 -0.366211,-0.12207 -0.167846,-0.106812 -0.274658,-0.274659 -0.09155,-0.183105 -0.09155,-0.473022 0,-0.961304 0.579834,-1.647949 0.579834,-0.701905 1.51062,-1.159668 0.930786,-0.457764 2.090454,-0.671387 1.159668,-0.213623 2.319336,-0.213623 1.449585,0 2.39563,0.350952 0.961304,0.350952 1.51062,0.976563 0.564576,0.62561 0.793457,1.480102 0.228882,0.854492 0.228882,1.876831 l 0,8.758545 q 0,0.289917 0.183106,0.473023 0.198364,0.183105 0.473022,0.213623 l 1.51062,0.09155 0,1.220703 -4.623413,0 z m -0.411987,-8.346557 q -2.105713,0.534057 -3.341675,1.052856 -1.235962,0.518799 -1.876831,1.052857 -0.62561,0.518799 -0.808716,1.068115 -0.167846,0.534058 -0.167846,1.113892 0,0.488281 0.152587,0.961303 0.167847,0.457764 0.457764,0.823975 0.305176,0.366211 0.732422,0.595093 0.442505,0.213623 1.00708,0.213623 0.62561,0 1.296997,-0.228882 0.686646,-0.228882 1.251221,-0.50354 0.656128,-0.320435 1.296997,-0.747681 l 0,-5.401611 z" />
      <path
         id="path3362"
         style="font-style:normal;font-variant:normal;font-weight:normal;font-stretch:normal;font-size:31.25px;line-height:0%;font-family:'Abyssinica SIL';-inkscape-font-specification:'Abyssinica SIL, Normal';text-align:start;writing-mode:lr-tb;text-anchor:start;fill:#800000"
         d="m 77.692696,37.977634 0,-1.220703 1.312255,-0.09155 q 0.289917,-0.03052 0.473023,-0.213623 0.183105,-0.183106 0.183105,-0.473023 l 0,-7.965088 q 0,-0.732422 -0.137329,-1.312256 -0.137329,-0.595092 -0.473022,-1.00708 -0.320435,-0.411987 -0.854492,-0.640869 -0.534058,-0.228882 -1.312256,-0.228882 -0.396729,0 -0.839234,0.07629 -0.427246,0.06104 -0.869751,0.183106 -0.427246,0.106811 -0.854492,0.274658 -0.411987,0.152588 -0.778198,0.335693 l 0,10.284424 q 0,0.289917 0.183105,0.473023 0.183106,0.183105 0.473023,0.213623 l 1.312256,0.09155 0,1.220703 -6.851197,0 0,-1.220703 1.312256,-0.09155 q 0.289917,-0.03052 0.473023,-0.213623 0.183105,-0.183106 0.183105,-0.473023 l 0,-8.163452 q 0,-0.656128 -0.152588,-1.205444 -0.137329,-0.564576 -0.473022,-0.946045 -0.320435,-0.396729 -0.854492,-0.610352 -0.518799,-0.228882 -1.26648,-0.228882 -0.442505,0 -0.930786,0.09155 -0.473022,0.07629 -0.915527,0.213623 -0.442505,0.12207 -0.839234,0.289917 -0.381469,0.152588 -0.656128,0.305176 l 0,10.253906 q 0,0.289917 0.183106,0.473023 0.183105,0.183105 0.473022,0.213623 l 1.312256,0.09155 0,1.220703 -7.064819,0 0,-1.220703 1.525879,-0.09155 q 0.289917,-0.03052 0.473022,-0.213623 0.183106,-0.183106 0.183106,-0.473023 l 0,-10.848999 -2.15149,0 0,-1.022339 3.78418,-1.190185 1.281738,0 0,1.556396 q 0.518799,-0.320434 1.14441,-0.656128 0.640869,-0.335693 1.312255,-0.62561 0.671387,-0.289917 1.342774,-0.473023 0.686645,-0.183105 1.296997,-0.183105 0.671387,0 1.220703,0.198364 0.549317,0.183106 0.961304,0.50354 0.427246,0.305176 0.732422,0.701904 0.320434,0.38147 0.518799,0.76294 0.473022,-0.289917 1.144409,-0.671387 0.671386,-0.381469 1.419067,-0.701904 0.747681,-0.335693 1.495361,-0.564575 0.747681,-0.228882 1.373291,-0.228882 1.235962,0 2.014161,0.457764 0.778198,0.442504 1.220703,1.144409 0.457763,0.686645 0.62561,1.541137 0.167847,0.854493 0.167847,1.64795 l 0,8.651733 q 0,0.289917 0.183105,0.473023 0.198364,0.183105 0.473023,0.213623 l 1.51062,0.09155 0,1.220703 -7.003784,0 z" />
      <path
         id="path3364"
         style="font-style:normal;font-variant:normal;font-weight:normal;font-stretch:normal;font-size:31.25px;line-height:0%;font-family:'Abyssinica SIL';-inkscape-font-specification:'Abyssinica SIL, Normal';text-align:start;writing-mode:lr-tb;text-anchor:start;fill:#800000"
         d="m 99.619576,36.421238 q -0.656128,0.411987 -1.373292,0.762939 -0.701904,0.350953 -1.464843,0.610352 -0.747681,0.259399 -1.525879,0.411987 -0.778198,0.152588 -1.571655,0.152588 -1.419068,0 -2.731324,-0.473022 -1.312256,-0.488282 -2.319336,-1.449585 -0.991821,-0.961304 -1.602172,-2.410889 -0.595093,-1.464844 -0.595093,-3.417969 0,-1.831054 0.549316,-3.311157 0.549317,-1.495361 1.525879,-2.548218 0.976563,-1.068115 2.319336,-1.63269 1.342773,-0.579834 2.944946,-0.579834 1.449585,0 2.548218,0.488281 1.098633,0.473023 1.831055,1.327515 0.732422,0.839233 1.098633,2.029419 0.366211,1.174927 0.366211,2.563476 0,0.167847 0,0.411988 0,0.24414 -0.03052,0.457763 l -10.131836,0 q 0,1.190186 0.244141,2.380371 0.259399,1.190186 0.854492,2.136231 0.595093,0.946045 1.602173,1.541138 1.00708,0.579834 2.5177,0.579834 0.671387,0 1.327514,-0.167847 0.656128,-0.183106 1.281739,-0.457764 0.640869,-0.274658 1.220703,-0.610351 0.579834,-0.350953 1.113892,-0.701905 l 0,1.907349 z m -3.128052,-8.69751 q 0,-0.778198 -0.183106,-1.434326 -0.183105,-0.671387 -0.564575,-1.159668 -0.366211,-0.488281 -0.946045,-0.762939 -0.564575,-0.289917 -1.342773,-0.289917 -0.778199,0 -1.449585,0.305175 -0.671387,0.289917 -1.190186,0.854493 -0.50354,0.564575 -0.823974,1.373291 -0.305176,0.793457 -0.366211,1.800537 l 6.866455,0 0,-0.686646 z" />
      <path
         id="path3366"
         style="font-style:normal;font-variant:normal;font-weight:normal;font-stretch:normal;font-size:31.25px;line-height:0%;font-family:'Abyssinica SIL';-inkscape-font-specification:'Abyssinica SIL, Normal';text-align:start;writing-mode:lr-tb;text-anchor:start;fill:#000080"
         d="m 110.25495,21.101414 q 0,0.427246 -0.0305,0.823974 -0.0305,0.396729 -0.0763,0.823975 -0.0458,0.411987 -0.12207,0.869751 -0.061,0.457764 -0.12207,0.976562 l -0.99182,7.125855 -1.4801,0 -0.99183,-7.156372 q -0.0763,-0.534058 -0.13732,-0.991821 -0.061,-0.457764 -0.12208,-0.869751 -0.061,-0.411988 -0.0916,-0.808716 -0.0305,-0.396729 -0.0305,-0.823975 0,-1.815796 0.54932,-2.655029 0.56458,-0.839234 1.58691,-0.839234 0.50354,0 0.88501,0.183106 0.38147,0.167847 0.64087,0.579834 0.27466,0.411987 0.39673,1.098633 0.13733,0.671386 0.13733,1.663208 z m 0.33569,14.465332 q 0,0.50354 -0.1831,0.946045 -0.18311,0.442505 -0.50354,0.762939 -0.32044,0.320435 -0.76294,0.518799 -0.42725,0.183105 -0.91553,0.183105 -0.50354,0 -0.94604,-0.183105 -0.44251,-0.198364 -0.76294,-0.518799 -0.32044,-0.320434 -0.5188,-0.762939 -0.18311,-0.442505 -0.18311,-0.946045 0,-0.488281 0.18311,-0.915528 0.19836,-0.442504 0.5188,-0.762939 0.32043,-0.320435 0.76294,-0.50354 0.4425,-0.183106 0.94604,-0.183106 0.48828,0 0.91553,0.183106 0.4425,0.183105 0.76294,0.50354 0.32043,0.320435 0.50354,0.762939 0.1831,0.427247 0.1831,0.915528 z" />
      <path
         id="path3368"
         style="font-style:normal;font-variant:normal;font-weight:normal;font-stretch:normal;font-size:31.25px;line-height:0%;font-family:'Abyssinica SIL';-inkscape-font-specification:'Abyssinica SIL, Normal';text-align:start;writing-mode:lr-tb;text-anchor:start;fill:#000080"
         d="m 131.03742,36.817966 q -0.53406,0.274659 -1.12915,0.564576 -0.57983,0.274658 -1.25122,0.488281 -0.65613,0.213623 -1.38855,0.350952 -0.71716,0.137329 -1.51062,0.137329 -1.64795,0 -2.97546,-0.579834 -1.31226,-0.595093 -2.24304,-1.63269 -0.93079,-1.052857 -1.43433,-2.487183 -0.50354,-1.434326 -0.50354,-3.112793 0,-1.968384 0.61035,-3.463745 0.61035,-1.495361 1.64795,-2.502441 1.0376,-1.022339 2.39563,-1.525879 1.37329,-0.518799 2.86865,-0.518799 1.02234,0 1.90735,0.213623 0.90027,0.198364 1.54114,0.595093 0.65613,0.396728 1.02234,0.976562 0.38147,0.579834 0.38147,1.342774 0,0.457763 -0.16785,0.808715 -0.15259,0.335694 -0.41199,0.579834 -0.2594,0.228882 -0.59509,0.350953 -0.32043,0.106811 -0.67139,0.106811 -0.5188,0 -0.90027,-0.167847 -0.38146,-0.183105 -0.67138,-0.36621 l 0,-2.716065 q -0.32044,-0.183105 -0.67139,-0.289917 -0.33569,-0.12207 -0.64087,-0.12207 -1.0376,0 -1.87683,0.473022 -0.82397,0.473023 -1.40381,1.312256 -0.56457,0.839233 -0.86975,1.998901 -0.30517,1.14441 -0.30517,2.502442 0,1.296997 0.32043,2.441406 0.33569,1.144409 0.97656,1.998901 0.65613,0.839234 1.61743,1.327515 0.97657,0.488281 2.25831,0.488281 1.09863,0 2.07519,-0.335693 0.99182,-0.350952 1.9989,-1.022339 l 0,1.327515 0,0.457763 z" />
      <path
         id="path3370"
         style="font-style:normal;font-variant:normal;font-weight:normal;font-stretch:normal;font-size:31.25px;line-height:0%;font-family:'Abyssinica SIL';-inkscape-font-specification:'Abyssinica SIL, Normal';text-align:start;writing-mode:lr-tb;text-anchor:start;fill:#000080"
         d="m 147.98994,30.47031 q 0,1.663208 -0.53406,3.112793 -0.5188,1.434326 -1.49536,2.502442 -0.96131,1.052856 -2.34986,1.663208 -1.37329,0.610351 -3.08227,0.610351 -1.70899,0 -3.08228,-0.595093 -1.37329,-0.610351 -2.33459,-1.663208 -0.9613,-1.052856 -1.4801,-2.487182 -0.50354,-1.449585 -0.50354,-3.143311 0,-1.663208 0.5188,-3.112793 0.51879,-1.449585 1.49536,-2.5177 0.97656,-1.083374 2.34985,-1.693726 1.38855,-0.610351 3.12805,-0.610351 1.7395,0 3.11279,0.62561 1.3733,0.625611 2.31934,1.708985 0.94605,1.068115 1.43433,2.5177 0.50354,1.434326 0.50354,3.082275 z m -3.25013,-0.03052 q 0,-1.281739 -0.25939,-2.456665 -0.24415,-1.174927 -0.76294,-2.075196 -0.5188,-0.900268 -1.297,-1.434326 -0.7782,-0.534058 -1.83106,-0.534058 -1.08337,0 -1.87683,0.534058 -0.79345,0.534058 -1.31225,1.434326 -0.50354,0.900269 -0.74768,2.075196 -0.24414,1.174926 -0.24414,2.456665 0,1.266479 0.24414,2.441406 0.2594,1.174927 0.77819,2.075195 0.5188,0.900269 1.297,1.449585 0.7782,0.534058 1.83106,0.534058 1.06811,0 1.86157,-0.534058 0.79346,-0.534057 1.297,-1.434326 0.51879,-0.900269 0.76294,-2.075195 0.25939,-1.174927 0.25939,-2.456665 z" />
      <path
         id="path3372"
         style="font-style:normal;font-variant:normal;font-weight:normal;font-stretch:normal;font-size:31.25px;line-height:0%;font-family:'Abyssinica SIL';-inkscape-font-specification:'Abyssinica SIL, Normal';text-align:start;writing-mode:lr-tb;text-anchor:start;fill:#000080"
         d="m 159.22041,37.977634 0,-1.220703 1.31225,-0.09155 q 0.27466,-0.03052 0.45777,-0.213623 0.19836,-0.183106 0.19836,-0.473023 l 0,-8.132935 q 0,-1.480102 -0.68665,-2.243041 -0.68664,-0.778199 -2.31933,-0.778199 -0.90027,0 -1.77002,0.2594 -0.86975,0.24414 -1.66321,0.640869 l 0,10.253906 q 0,0.289917 0.18311,0.473023 0.1831,0.183105 0.47302,0.213623 l 1.31225,0.09155 0,1.220703 -7.06482,0 0,-1.220703 1.52588,-0.09155 q 0.28992,-0.03052 0.47303,-0.213623 0.1831,-0.183106 0.1831,-0.473023 l 0,-10.848999 -2.18201,0 0,-1.022339 3.8147,-1.190185 1.28174,0 0,1.556396 q 0.65613,-0.366211 1.32752,-0.717163 0.68664,-0.350952 1.35803,-0.62561 0.67138,-0.274659 1.29699,-0.427246 0.62561,-0.167847 1.17493,-0.167847 2.04468,0 3.11279,1.266479 1.06812,1.26648 1.06812,3.555298 l 0,8.621216 q 0,0.289917 0.1831,0.473023 0.19837,0.183105 0.47303,0.213623 l 1.37329,0.09155 0,1.220703 -6.89697,0 z" />
      <path
         id="path3374"
         style="font-style:normal;font-variant:normal;font-weight:normal;font-stretch:normal;font-size:31.25px;line-height:0%;font-family:'Abyssinica SIL';-inkscape-font-specification:'Abyssinica SIL, Normal';text-align:start;writing-mode:lr-tb;text-anchor:start;fill:#000080"
         d="m 181.28461,24.321018 -5.46264,13.656616 -2.02942,0 -5.0354,-13.656616 -1.72424,-0.183105 0,-1.220703 6.91223,0 0,1.220703 -1.49536,0.09155 q -0.2594,0.03052 -0.41199,0.228882 -0.15259,0.198365 -0.061,0.457764 l 3.49427,9.780884 3.84521,-9.780884 q 0.10681,-0.244141 -0.0305,-0.442505 -0.13733,-0.213623 -0.39673,-0.244141 l -1.4038,-0.09155 0,-1.220703 5.46264,0 0,1.220703 -1.66321,0.183105 z" />
      <path
         id="path3376"
         style="font-style:normal;font-variant:normal;font-weight:normal;font-stretch:normal;font-size:31.25px;line-height:0%;font-family:'Abyssinica SIL';-inkscape-font-specification:'Abyssinica SIL, Normal';text-align:start;writing-mode:lr-tb;text-anchor:start;fill:#000080"
         d="m 197.51997,36.421238 q -0.65613,0.411987 -1.37329,0.762939 -0.70191,0.350953 -1.46485,0.610352 -0.74768,0.259399 -1.52588,0.411987 -0.7782,0.152588 -1.57165,0.152588 -1.41907,0 -2.73133,-0.473022 -1.31225,-0.488282 -2.31933,-1.449585 -0.99182,-0.961304 -1.60217,-2.410889 -0.5951,-1.464844 -0.5951,-3.417969 0,-1.831054 0.54932,-3.311157 0.54932,-1.495361 1.52588,-2.548218 0.97656,-1.068115 2.31933,-1.63269 1.34278,-0.579834 2.94495,-0.579834 1.44958,0 2.54822,0.488281 1.09863,0.473023 1.83105,1.327515 0.73242,0.839233 1.09864,2.029419 0.36621,1.174927 0.36621,2.563476 0,0.167847 0,0.411988 0,0.24414 -0.0305,0.457763 l -10.13184,0 q 0,1.190186 0.24414,2.380371 0.2594,1.190186 0.8545,2.136231 0.59509,0.946045 1.60217,1.541138 1.00708,0.579834 2.5177,0.579834 0.67139,0 1.32751,-0.167847 0.65613,-0.183106 1.28174,-0.457764 0.64087,-0.274658 1.2207,-0.610351 0.57984,-0.350953 1.1139,-0.701905 l 0,1.907349 z m -3.12806,-8.69751 q 0,-0.778198 -0.1831,-1.434326 -0.18311,-0.671387 -0.56458,-1.159668 -0.36621,-0.488281 -0.94604,-0.762939 -0.56458,-0.289917 -1.34277,-0.289917 -0.7782,0 -1.44959,0.305175 -0.67139,0.289917 -1.19019,0.854493 -0.50354,0.564575 -0.82397,1.373291 -0.30518,0.793457 -0.36621,1.800537 l 6.86645,0 0,-0.686646 z" />
      <path
         id="path3378"
         style="font-style:normal;font-variant:normal;font-weight:normal;font-stretch:normal;font-size:31.25px;line-height:0%;font-family:'Abyssinica SIL';-inkscape-font-specification:'Abyssinica SIL, Normal';text-align:start;writing-mode:lr-tb;text-anchor:start;fill:#000080"
         d="m 209.26923,26.106297 q -0.30517,-0.350953 -0.7019,-0.595093 -0.39673,-0.2594 -0.97656,-0.2594 -0.76294,0 -1.54114,0.518799 -0.7782,0.50354 -1.58691,1.419068 l 0,8.789062 q 0,0.289917 0.1831,0.473023 0.18311,0.183105 0.47302,0.213623 l 2.05994,0.09155 0,1.220703 -7.8125,0 0,-1.190185 1.54114,-0.12207 q 0.27466,-0.03052 0.45776,-0.213623 0.19837,-0.183106 0.19837,-0.473023 l 0,-10.848999 -2.25831,0 0,-1.022339 3.87574,-1.190185 1.28174,0 0,2.777099 q 0.33569,-0.366211 0.80871,-0.900268 0.48828,-0.549317 1.0376,-1.052857 0.54932,-0.50354 1.12915,-0.854492 0.59509,-0.350952 1.14441,-0.350952 0.24414,0 0.5188,0.04578 0.27466,0.04578 0.53405,0.122071 0.2594,0.06104 0.47303,0.152587 0.22888,0.07629 0.38147,0.152588 l 0,3.097535 -1.22071,0 z" />
      <path
         id="path3380"
         style="font-style:normal;font-variant:normal;font-weight:normal;font-stretch:normal;font-size:31.25px;line-height:0%;font-family:'Abyssinica SIL';-inkscape-font-specification:'Abyssinica SIL, Normal';text-align:start;writing-mode:lr-tb;text-anchor:start;fill:#000080"
         d="m 222.22395,33.445774 q 0,1.144409 -0.41199,2.059937 -0.41199,0.915527 -1.17493,1.556396 -0.76294,0.62561 -1.87683,0.961304 -1.11389,0.335693 -2.50244,0.335693 -0.71716,0 -1.40381,-0.09155 -0.67139,-0.07629 -1.25122,-0.213623 -0.56458,-0.12207 -1.00708,-0.259399 -0.44251,-0.137329 -0.67139,-0.228882 l 0,-4.15039 1.58692,0 0.38147,2.655029 q 0.47302,0.305176 1.15966,0.595093 0.70191,0.274658 1.61744,0.274658 0.67138,0 1.19018,-0.198364 0.5188,-0.213624 0.86975,-0.549317 0.36621,-0.335693 0.54932,-0.762939 0.19836,-0.442505 0.19836,-0.915528 0,-0.656128 -0.2594,-1.113891 -0.2594,-0.473023 -0.74768,-0.839234 -0.48828,-0.381469 -1.20544,-0.732422 -0.70191,-0.350952 -1.60217,-0.793457 -0.8545,-0.411987 -1.51062,-0.808715 -0.65613,-0.411988 -1.1139,-0.869751 -0.4425,-0.473023 -0.67138,-1.022339 -0.22888,-0.564575 -0.22888,-1.26648 0,-1.037597 0.36621,-1.876831 0.38147,-0.839233 1.09863,-1.419067 0.71716,-0.595093 1.75476,-0.915528 1.05286,-0.320434 2.41089,-0.320434 0.68664,0 1.31226,0.07629 0.62561,0.07629 1.1444,0.183105 0.5188,0.106812 0.91553,0.228882 0.39673,0.12207 0.62561,0.228882 l 0,3.692627 -1.63269,0 -0.24414,-2.182007 q -0.33569,-0.259399 -0.99182,-0.488281 -0.65613,-0.228882 -1.38855,-0.228882 -1.297,0 -1.92261,0.595093 -0.61035,0.579834 -0.61035,1.495361 0,0.534058 0.16785,0.930786 0.1831,0.396729 0.57983,0.747681 0.41199,0.350952 1.06812,0.717163 0.67138,0.366211 1.6632,0.823975 0.82398,0.366211 1.51062,0.762939 0.68665,0.396729 1.19019,0.88501 0.50354,0.488281 0.7782,1.083374 0.28992,0.595093 0.28992,1.358032 z" />
      <path
         id="path3382"
         style="font-style:normal;font-variant:normal;font-weight:normal;font-stretch:normal;font-size:31.25px;line-height:0%;font-family:'Abyssinica SIL';-inkscape-font-specification:'Abyssinica SIL, Normal';text-align:start;writing-mode:lr-tb;text-anchor:start;fill:#000080"
         d="m 230.11274,17.759739 q 0,0.396728 -0.15259,0.762939 -0.13733,0.350953 -0.39673,0.610352 -0.2594,0.259399 -0.61035,0.411987 -0.33569,0.152588 -0.73242,0.152588 -0.39673,0 -0.76294,-0.152588 -0.35095,-0.152588 -0.61035,-0.411987 -0.2594,-0.259399 -0.41199,-0.610352 -0.15259,-0.366211 -0.15259,-0.762939 0,-0.396729 0.15259,-0.747681 0.15259,-0.350952 0.41199,-0.610351 0.2594,-0.2594 0.61035,-0.396729 0.36621,-0.152588 0.76294,-0.152588 0.39673,0 0.73242,0.152588 0.35095,0.137329 0.61035,0.396729 0.2594,0.259399 0.39673,0.610351 0.15259,0.350952 0.15259,0.747681 z m -5.73731,20.217895 0,-1.220703 1.52588,-0.09155 q 0.28992,-0.03052 0.47303,-0.213623 0.1831,-0.183106 0.1831,-0.473023 l 0,-11.154175 -2.15149,0 0,-1.098633 3.8147,-1.190185 1.23596,0 0,13.442993 q 0,0.289917 0.18311,0.473023 0.19836,0.183105 0.47302,0.213623 l 1.60217,0.09155 0,1.220703 -7.33948,0 z" />
      <path
         id="path3384"
         style="font-style:normal;font-variant:normal;font-weight:normal;font-stretch:normal;font-size:31.25px;line-height:0%;font-family:'Abyssinica SIL';-inkscape-font-specification:'Abyssinica SIL, Normal';text-align:start;writing-mode:lr-tb;text-anchor:start;fill:#000080"
         d="m 248.69794,30.47031 q 0,1.663208 -0.53405,3.112793 -0.5188,1.434326 -1.49536,2.502442 -0.96131,1.052856 -2.34986,1.663208 -1.37329,0.610351 -3.08227,0.610351 -1.70899,0 -3.08228,-0.595093 -1.37329,-0.610351 -2.33459,-1.663208 -0.96131,-1.052856 -1.48011,-2.487182 -0.50354,-1.449585 -0.50354,-3.143311 0,-1.663208 0.5188,-3.112793 0.5188,-1.449585 1.49536,-2.5177 0.97657,-1.083374 2.34986,-1.693726 1.38855,-0.610351 3.12805,-0.610351 1.7395,0 3.11279,0.62561 1.37329,0.625611 2.31934,1.708985 0.94604,1.068115 1.43432,2.5177 0.50354,1.434326 0.50354,3.082275 z m -3.25012,-0.03052 q 0,-1.281739 -0.2594,-2.456665 -0.24414,-1.174927 -0.76294,-2.075196 -0.5188,-0.900268 -1.29699,-1.434326 -0.7782,-0.534058 -1.83106,-0.534058 -1.08337,0 -1.87683,0.534058 -0.79346,0.534058 -1.31225,1.434326 -0.50355,0.900269 -0.74769,2.075196 -0.24414,1.174926 -0.24414,2.456665 0,1.266479 0.24414,2.441406 0.2594,1.174927 0.7782,2.075195 0.5188,0.900269 1.297,1.449585 0.7782,0.534058 1.83105,0.534058 1.06812,0 1.86158,-0.534058 0.79345,-0.534057 1.29699,-1.434326 0.5188,-0.900269 0.76294,-2.075195 0.2594,-1.174927 0.2594,-2.456665 z" />
      <path
         id="path3386"
         style="font-style:normal;font-variant:normal;font-weight:normal;font-stretch:normal;font-size:31.25px;line-height:0%;font-family:'Abyssinica SIL';-inkscape-font-specification:'Abyssinica SIL, Normal';text-align:start;writing-mode:lr-tb;text-anchor:start;fill:#000080"
         d="m 259.92841,37.977634 0,-1.220703 1.31226,-0.09155 q 0.27466,-0.03052 0.45776,-0.213623 0.19837,-0.183106 0.19837,-0.473023 l 0,-8.132935 q 0,-1.480102 -0.68665,-2.243041 -0.68664,-0.778199 -2.31933,-0.778199 -0.90027,0 -1.77002,0.2594 -0.86975,0.24414 -1.66321,0.640869 l 0,10.253906 q 0,0.289917 0.1831,0.473023 0.18311,0.183105 0.47303,0.213623 l 1.31225,0.09155 0,1.220703 -7.06482,0 0,-1.220703 1.52588,-0.09155 q 0.28992,-0.03052 0.47302,-0.213623 0.18311,-0.183106 0.18311,-0.473023 l 0,-10.848999 -2.18201,0 0,-1.022339 3.8147,-1.190185 1.28174,0 0,1.556396 q 0.65613,-0.366211 1.32751,-0.717163 0.68665,-0.350952 1.35804,-0.62561 0.67138,-0.274659 1.29699,-0.427246 0.62561,-0.167847 1.17493,-0.167847 2.04468,0 3.11279,1.266479 1.06812,1.26648 1.06812,3.555298 l 0,8.621216 q 0,0.289917 0.1831,0.473023 0.19837,0.183105 0.47303,0.213623 l 1.37329,0.09155 0,1.220703 -6.89698,0 z" />
      <path
         id="path3388"
         style="font-style:normal;font-variant:normal;font-weight:normal;font-stretch:normal;font-size:31.25px;line-height:0%;font-family:'Abyssinica SIL';-inkscape-font-specification:'Abyssinica SIL, Normal';text-align:start;writing-mode:lr-tb;text-anchor:start;fill:#ff00ff"
         d="m 273.55451,24.641453 q 0,0.427246 -0.16784,0.808716 -0.16785,0.381469 -0.45777,0.671386 -0.28992,0.274659 -0.68664,0.442505 -0.38147,0.167847 -0.80872,0.167847 -0.4425,0 -0.82397,-0.167847 -0.36622,-0.167846 -0.65613,-0.442505 -0.28992,-0.289917 -0.45777,-0.671386 -0.15258,-0.38147 -0.15258,-0.808716 0,-0.427246 0.15258,-0.808716 0.16785,-0.396729 0.45777,-0.671387 0.28991,-0.289917 0.65613,-0.457763 0.38147,-0.167847 0.82397,-0.167847 0.42725,0 0.80872,0.167847 0.39672,0.167846 0.68664,0.457763 0.28992,0.274658 0.45777,0.671387 0.16784,0.38147 0.16784,0.808716 z m 0,11.611938 q 0,0.442505 -0.16784,0.823975 -0.16785,0.38147 -0.45777,0.671387 -0.28992,0.274658 -0.68664,0.442504 -0.38147,0.167847 -0.80872,0.167847 -0.4425,0 -0.82397,-0.167847 -0.36622,-0.167846 -0.65613,-0.442504 -0.28992,-0.289917 -0.45777,-0.671387 -0.15258,-0.38147 -0.15258,-0.823975 0,-0.427246 0.15258,-0.808716 0.16785,-0.381469 0.45777,-0.656127 0.28991,-0.289917 0.65613,-0.457764 0.38147,-0.167847 0.82397,-0.167847 0.42725,0 0.80872,0.167847 0.39672,0.167847 0.68664,0.457764 0.28992,0.274658 0.45777,0.656127 0.16784,0.38147 0.16784,0.808716 z" />
      <path
         id="path3390"
         style="font-style:normal;font-variant:normal;font-weight:normal;font-stretch:normal;font-size:31.25px;line-height:0%;font-family:'Abyssinica SIL';-inkscape-font-specification:'Abyssinica SIL, Normal';text-align:start;writing-mode:lr-tb;text-anchor:start;fill:#ff00ff"
         d="m 288.32502,16.828953 q 0,0.473022 -0.19836,0.793457 -0.18311,0.305176 -0.44251,0.50354 -0.24414,0.183105 -0.48828,0.274658 -0.22888,0.09155 -0.32044,0.106812 -0.0305,-0.03052 -0.25939,-0.183106 -0.21363,-0.167847 -0.53406,-0.38147 -0.30518,-0.228881 -0.67139,-0.473022 -0.35095,-0.244141 -0.65613,-0.457764 -0.30517,-0.228882 -0.5188,-0.366211 -0.21362,-0.152588 -0.22888,-0.167846 -0.33569,0.183105 -0.67138,0.518798 -0.32044,0.335694 -0.5951,0.900269 -0.2594,0.564575 -0.42724,1.373291 -0.15259,0.793457 -0.15259,1.89209 l 0,1.998901 3.87573,0 0,1.602173 -3.87573,0 0,11.21521 q 0,0.289917 0.1831,0.473023 0.19837,0.183105 0.47303,0.213623 l 1.84631,0.09155 0,1.220703 -7.59888,0 0,-1.220703 1.54114,-0.09155 q 0.27466,-0.03052 0.45776,-0.213623 0.19837,-0.183106 0.19837,-0.473023 l 0,-11.21521 -1.9989,0 0,-1.098633 1.9989,-0.564575 q 0,-0.778198 0.0458,-1.38855 0.061,-0.62561 0.1831,-1.159668 0.13733,-0.549316 0.33569,-1.052856 0.19837,-0.518799 0.48829,-1.083374 0.45776,-0.88501 1.05285,-1.525879 0.61035,-0.656128 1.297,-1.083374 0.7019,-0.427246 1.44958,-0.640869 0.76294,-0.213623 1.52588,-0.213623 0.65613,0 1.15967,0.152588 0.50354,0.152588 0.83923,0.411987 0.35096,0.259399 0.5188,0.595093 0.16785,0.335693 0.16785,0.717163 z" />
      <path
         id="path3392"
         style="font-style:normal;font-variant:normal;font-weight:normal;font-stretch:normal;font-size:31.25px;line-height:0%;font-family:'Abyssinica SIL';-inkscape-font-specification:'Abyssinica SIL, Normal';text-align:start;writing-mode:lr-tb;text-anchor:start;fill:#ff00ff"
         d="m 302.28681,30.47031 q 0,1.663208 -0.53406,3.112793 -0.51879,1.434326 -1.49536,2.502442 -0.9613,1.052856 -2.34985,1.663208 -1.37329,0.610351 -3.08228,0.610351 -1.70898,0 -3.08227,-0.595093 -1.37329,-0.610351 -2.3346,-1.663208 -0.9613,-1.052856 -1.4801,-2.487182 -0.50354,-1.449585 -0.50354,-3.143311 0,-1.663208 0.5188,-3.112793 0.5188,-1.449585 1.49536,-2.5177 0.97656,-1.083374 2.34985,-1.693726 1.38855,-0.610351 3.12806,-0.610351 1.7395,0 3.11279,0.62561 1.37329,0.625611 2.31934,1.708985 0.94604,1.068115 1.43432,2.5177 0.50354,1.434326 0.50354,3.082275 z m -3.25012,-0.03052 q 0,-1.281739 -0.2594,-2.456665 -0.24414,-1.174927 -0.76294,-2.075196 -0.5188,-0.900268 -1.297,-1.434326 -0.77819,-0.534058 -1.83105,-0.534058 -1.08337,0 -1.87683,0.534058 -0.79346,0.534058 -1.31226,1.434326 -0.50354,0.900269 -0.74768,2.075196 -0.24414,1.174926 -0.24414,2.456665 0,1.266479 0.24414,2.441406 0.2594,1.174927 0.7782,2.075195 0.5188,0.900269 1.297,1.449585 0.7782,0.534058 1.83105,0.534058 1.06812,0 1.86157,-0.534058 0.79346,-0.534057 1.297,-1.434326 0.5188,-0.900269 0.76294,-2.075195 0.2594,-1.174927 0.2594,-2.456665 z" />
      <path
         id="path3394"
         style="font-style:normal;font-variant:normal;font-weight:normal;font-stretch:normal;font-size:31.25px;line-height:0%;font-family:'Abyssinica SIL';-inkscape-font-specification:'Abyssinica SIL, Normal';text-align:start;writing-mode:lr-tb;text-anchor:start;fill:#ff00ff"
         d="m 314.00556,26.106297 q -0.30517,-0.350953 -0.7019,-0.595093 -0.39673,-0.2594 -0.97656,-0.2594 -0.76294,0 -1.54114,0.518799 -0.7782,0.50354 -1.58692,1.419068 l 0,8.789062 q 0,0.289917 0.18311,0.473023 0.1831,0.183105 0.47302,0.213623 l 2.05994,0.09155 0,1.220703 -7.8125,0 0,-1.190185 1.54114,-0.12207 q 0.27465,-0.03052 0.45776,-0.213623 0.19836,-0.183106 0.19836,-0.473023 l 0,-10.848999 -2.2583,0 0,-1.022339 3.87573,-1.190185 1.28174,0 0,2.777099 q 0.3357,-0.366211 0.80872,-0.900268 0.48828,-0.549317 1.0376,-1.052857 0.54931,-0.50354 1.12915,-0.854492 0.59509,-0.350952 1.14441,-0.350952 0.24414,0 0.5188,0.04578 0.27465,0.04578 0.53405,0.122071 0.2594,0.06104 0.47303,0.152587 0.22888,0.07629 0.38146,0.152588 l 0,3.097535 -1.2207,0 z" />
      <path
         id="path3396"
         style="font-style:normal;font-variant:normal;font-weight:normal;font-stretch:normal;font-size:31.25px;line-height:0%;font-family:'Abyssinica SIL';-inkscape-font-specification:'Abyssinica SIL, Normal';text-align:start;writing-mode:lr-tb;text-anchor:start;fill:#ff00ff"
         d="m 334.4676,37.977634 0,-1.220703 1.31225,-0.09155 q 0.28992,-0.03052 0.47303,-0.213623 0.1831,-0.183106 0.1831,-0.473023 l 0,-7.965088 q 0,-0.732422 -0.13733,-1.312256 -0.13733,-0.595092 -0.47302,-1.00708 -0.32043,-0.411987 -0.85449,-0.640869 -0.53406,-0.228882 -1.31226,-0.228882 -0.39673,0 -0.83923,0.07629 -0.42725,0.06104 -0.86975,0.183106 -0.42725,0.106811 -0.85449,0.274658 -0.41199,0.152588 -0.7782,0.335693 l 0,10.284424 q 0,0.289917 0.1831,0.473023 0.18311,0.183105 0.47303,0.213623 l 1.31225,0.09155 0,1.220703 -6.8512,0 0,-1.220703 1.31226,-0.09155 q 0.28992,-0.03052 0.47302,-0.213623 0.18311,-0.183106 0.18311,-0.473023 l 0,-8.163452 q 0,-0.656128 -0.15259,-1.205444 -0.13733,-0.564576 -0.47302,-0.946045 -0.32044,-0.396729 -0.85449,-0.610352 -0.5188,-0.228882 -1.26648,-0.228882 -0.44251,0 -0.93079,0.09155 -0.47302,0.07629 -0.91553,0.213623 -0.4425,0.12207 -0.83923,0.289917 -0.38147,0.152588 -0.65613,0.305176 l 0,10.253906 q 0,0.289917 0.18311,0.473023 0.1831,0.183105 0.47302,0.213623 l 1.31226,0.09155 0,1.220703 -7.06482,0 0,-1.220703 1.52588,-0.09155 q 0.28991,-0.03052 0.47302,-0.213623 0.1831,-0.183106 0.1831,-0.473023 l 0,-10.848999 -2.15149,0 0,-1.022339 3.78418,-1.190185 1.28174,0 0,1.556396 q 0.5188,-0.320434 1.14441,-0.656128 0.64087,-0.335693 1.31226,-0.62561 0.67138,-0.289917 1.34277,-0.473023 0.68665,-0.183105 1.297,-0.183105 0.67138,0 1.2207,0.198364 0.54932,0.183106 0.9613,0.50354 0.42725,0.305176 0.73243,0.701904 0.32043,0.38147 0.51879,0.76294 0.47303,-0.289917 1.14441,-0.671387 0.67139,-0.381469 1.41907,-0.701904 0.74768,-0.335693 1.49536,-0.564575 0.74768,-0.228882 1.37329,-0.228882 1.23597,0 2.01416,0.457764 0.7782,0.442504 1.22071,1.144409 0.45776,0.686645 0.62561,1.541137 0.16784,0.854493 0.16784,1.64795 l 0,8.651733 q 0,0.289917 0.18311,0.473023 0.19836,0.183105 0.47302,0.213623 l 1.51062,0.09155 0,1.220703 -7.00378,0 z" />
      <path
         id="path3398"
         style="font-style:normal;font-variant:normal;font-weight:normal;font-stretch:normal;font-size:31.25px;line-height:0%;font-family:'Abyssinica SIL';-inkscape-font-specification:'Abyssinica SIL, Normal';text-align:start;writing-mode:lr-tb;text-anchor:start;fill:#ff00ff"
         d="m 352.90022,37.977634 -0.41199,-1.846313 q -0.82398,0.62561 -1.69373,1.113892 -0.38147,0.213623 -0.80871,0.411987 -0.42725,0.198364 -0.88501,0.350952 -0.44251,0.167847 -0.91553,0.259399 -0.45776,0.09155 -0.91553,0.09155 -0.85449,0 -1.60217,-0.289917 -0.73242,-0.289917 -1.28174,-0.839233 -0.54932,-0.549317 -0.86975,-1.327515 -0.30518,-0.778198 -0.30518,-1.770019 0,-0.579834 0.10682,-1.098633 0.12207,-0.518799 0.47302,-1.00708 0.35095,-0.488282 0.97656,-0.930786 0.64087,-0.457764 1.66321,-0.900269 1.0376,-0.442505 2.5177,-0.869751 1.49536,-0.442505 3.54004,-0.88501 l 0,-1.342773 q 0,-1.571655 -0.70191,-2.319336 -0.7019,-0.76294 -2.21252,-0.76294 -0.82398,0 -1.40381,0.152588 -0.57983,0.152588 -0.80872,0.244141 l 0,2.716064 -2.27355,0 q -0.21363,0 -0.42725,-0.03052 -0.19837,-0.03052 -0.36621,-0.12207 -0.16785,-0.106812 -0.27466,-0.274659 -0.0916,-0.183105 -0.0916,-0.473022 0,-0.961304 0.57983,-1.647949 0.57984,-0.701905 1.51062,-1.159668 0.93079,-0.457764 2.09046,-0.671387 1.15966,-0.213623 2.31933,-0.213623 1.44959,0 2.39563,0.350952 0.9613,0.350952 1.51062,0.976563 0.56458,0.62561 0.79346,1.480102 0.22888,0.854492 0.22888,1.876831 l 0,8.758545 q 0,0.289917 0.18311,0.473023 0.19836,0.183105 0.47302,0.213623 l 1.51062,0.09155 0,1.220703 -4.62341,0 z m -0.41199,-8.346557 q -2.10572,0.534057 -3.34168,1.052856 -1.23596,0.518799 -1.87683,1.052857 -0.62561,0.518799 -0.80871,1.068115 -0.16785,0.534058 -0.16785,1.113892 0,0.488281 0.15259,0.961303 0.16784,0.457764 0.45776,0.823975 0.30518,0.366211 0.73242,0.595093 0.44251,0.213623 1.00708,0.213623 0.62561,0 1.297,-0.228882 0.68665,-0.228882 1.25122,-0.50354 0.65613,-0.320435 1.297,-0.747681 l 0,-5.401611 z" />
      <path
         id="path3400"
         style="font-style:normal;font-variant:normal;font-weight:normal;font-stretch:normal;font-size:31.25px;line-height:0%;font-family:'Abyssinica SIL';-inkscape-font-specification:'Abyssinica SIL, Normal';text-align:start;writing-mode:lr-tb;text-anchor:start;fill:#ff00ff"
         d="m 368.4184,37.321507 q -0.57983,0.289916 -1.26648,0.518798 -0.57983,0.198365 -1.34277,0.350952 -0.76294,0.167847 -1.60217,0.167847 -1.77002,0 -2.56348,-0.823974 -0.79346,-0.823975 -0.79346,-2.685547 l 0,-10.375977 -1.9989,0 0,-1.022339 2.13623,-1.00708 1.40381,-3.311157 1.37329,0 0,3.78418 4.40979,0 0,1.556396 -4.40979,0 0,8.728027 q 0,0.930787 0.15259,1.586915 0.16785,0.640869 0.47302,1.052856 0.32044,0.396728 0.7782,0.579834 0.47302,0.183105 1.09863,0.183105 0.45777,0 0.83924,-0.07629 0.39673,-0.07629 0.68664,-0.183105 0.3357,-0.12207 0.62561,-0.274658 l 0,1.251221 z" />
      <path
         id="path3402"
         style="font-style:normal;font-variant:normal;font-weight:normal;font-stretch:normal;font-size:31.25px;line-height:0%;font-family:'Abyssinica SIL';-inkscape-font-specification:'Abyssinica SIL, Normal';text-align:start;writing-mode:lr-tb;text-anchor:start;fill:#ff00ff"
         d="m 383.75349,32.103001 q 0,1.190185 -0.47303,2.334594 -0.45776,1.14441 -1.46484,2.044678 -1.00708,0.900269 -2.57873,1.449585 -1.57166,0.549316 -3.76893,0.549316 -1.28173,0 -2.30407,-0.183105 -1.00708,-0.183105 -1.7395,-0.396729 -0.83924,-0.259399 -1.51063,-0.579833 l 0,-5.538941 1.96839,0 0.41199,3.540039 q 0.0305,0.183106 0.1831,0.396729 0.16785,0.213623 0.33569,0.289917 0.0305,0.01526 0.2594,0.137329 0.22889,0.106811 0.62561,0.24414 0.39673,0.122071 0.96131,0.228882 0.57983,0.106812 1.31225,0.106812 0.99183,0 1.83106,-0.244141 0.85449,-0.259399 1.46484,-0.732422 0.61035,-0.473022 0.94605,-1.159668 0.35095,-0.686645 0.35095,-1.556396 0,-0.946045 -0.54932,-1.647949 -0.53405,-0.717164 -1.35803,-1.26648 -0.80871,-0.564575 -1.77002,-1.00708 -0.9613,-0.442505 -1.81579,-0.854492 -0.96131,-0.457764 -1.84632,-0.946045 -0.86975,-0.488281 -1.54114,-1.129151 -0.65612,-0.640869 -1.05285,-1.495361 -0.38147,-0.869751 -0.38147,-2.059936 0,-1.38855 0.54931,-2.517701 0.54932,-1.12915 1.51062,-1.922607 0.97657,-0.808716 2.28882,-1.235962 1.32752,-0.442505 2.86866,-0.442505 0.88501,0 1.6632,0.106812 0.79346,0.106811 1.46485,0.274658 0.68664,0.152588 1.26648,0.335693 0.59509,0.183106 1.11389,0.350952 l 0,4.867554 -1.78528,0 -0.47302,-2.990722 q -0.0305,-0.152588 -0.18311,-0.305176 -0.13733,-0.152588 -0.27466,-0.228882 -0.0305,-0.01526 -0.19836,-0.137329 -0.16785,-0.122071 -0.50354,-0.244141 -0.32043,-0.12207 -0.83923,-0.228882 -0.50354,-0.106811 -1.20545,-0.106811 -0.94604,0 -1.69372,0.274658 -0.74768,0.274658 -1.26648,0.778198 -0.5188,0.488282 -0.80872,1.159668 -0.27466,0.671387 -0.27466,1.464844 0,0.717163 0.27466,1.312256 0.28992,0.579834 0.83923,1.083374 0.56458,0.488281 1.3733,0.915527 0.80871,0.427246 1.86157,0.823975 1.41907,0.534057 2.5177,1.113891 1.11389,0.579834 1.86157,1.296997 0.76294,0.717164 1.15967,1.617432 0.39673,0.88501 0.39673,2.059937 z" />
      <path
         id="path3404"
         style="font-style:normal;font-variant:normal;font-weight:normal;font-stretch:normal;font-size:31.25px;line-height:0%;font-family:'Abyssinica SIL';-inkscape-font-specification:'Abyssinica SIL, Normal';text-align:start;writing-mode:lr-tb;text-anchor:start;fill:#ff00ff"
         d="m 401.33161,30.22617 q 0,1.846313 -0.54931,3.356933 -0.53406,1.495362 -1.5564,2.563477 -1.00708,1.052856 -2.48718,1.63269 -1.46485,0.579834 -3.31116,0.579834 -0.42725,0 -0.91553,-0.04578 -0.48828,-0.03052 -0.90027,-0.09155 -0.48828,-0.06104 -0.9613,-0.152588 l 0,4.653931 q 0,0.289917 0.19836,0.457764 0.19837,0.167846 0.48828,0.198364 l 1.84632,0.198364 0,1.205444 -7.59888,0 0,-1.205444 1.49536,-0.198364 q 0.28992,-0.03052 0.47303,-0.198364 0.1831,-0.167847 0.1831,-0.457764 l 0,-17.593384 -2.15149,0 0,-1.022339 3.84522,-1.190185 1.2207,0 0,1.556396 q 0.67139,-0.534058 1.43433,-0.961304 0.65612,-0.366211 1.51062,-0.671386 0.85449,-0.305176 1.77002,-0.305176 1.20544,0 2.28881,0.549316 1.08338,0.549317 1.89209,1.556397 0.82398,1.00708 1.297,2.426147 0.48828,1.419068 0.48828,3.15857 z m -3.12805,0.442504 q 0,-1.205444 -0.28992,-2.273559 -0.27466,-1.083374 -0.82397,-1.89209 -0.54932,-0.823975 -1.37329,-1.296997 -0.80872,-0.473022 -1.87683,-0.473022 -0.5951,0 -1.17493,0.152587 -0.56458,0.152588 -1.00708,0.320435 -0.5188,0.198364 -1.00708,0.457764 l 0,10.757446 q 0.36621,0.137329 0.7782,0.244141 0.35095,0.09155 0.80871,0.167846 0.45777,0.07629 0.94605,0.07629 1.28174,0 2.22778,-0.518799 0.94605,-0.518798 1.5564,-1.373291 0.62561,-0.869751 0.93078,-1.998901 0.30518,-1.12915 0.30518,-2.349854 z" />
      <path
         id="path3406"
         style="font-style:normal;font-variant:normal;font-weight:normal;font-stretch:normal;font-size:31.25px;line-height:0%;font-family:'Abyssinica SIL';-inkscape-font-specification:'Abyssinica SIL, Normal';text-align:start;writing-mode:lr-tb;text-anchor:start;fill:#ff00ff"
         d="m 416.69721,36.421238 q -0.65613,0.411987 -1.37329,0.762939 -0.7019,0.350953 -1.46484,0.610352 -0.74768,0.259399 -1.52588,0.411987 -0.7782,0.152588 -1.57166,0.152588 -1.41906,0 -2.73132,-0.473022 -1.31226,-0.488282 -2.31934,-1.449585 -0.99182,-0.961304 -1.60217,-2.410889 -0.59509,-1.464844 -0.59509,-3.417969 0,-1.831054 0.54931,-3.311157 0.54932,-1.495361 1.52588,-2.548218 0.97657,-1.068115 2.31934,-1.63269 1.34277,-0.579834 2.94495,-0.579834 1.44958,0 2.54821,0.488281 1.09864,0.473023 1.83106,1.327515 0.73242,0.839233 1.09863,2.029419 0.36621,1.174927 0.36621,2.563476 0,0.167847 0,0.411988 0,0.24414 -0.0305,0.457763 l -10.13183,0 q 0,1.190186 0.24414,2.380371 0.2594,1.190186 0.85449,2.136231 0.59509,0.946045 1.60217,1.541138 1.00708,0.579834 2.5177,0.579834 0.67139,0 1.32752,-0.167847 0.65613,-0.183106 1.28174,-0.457764 0.64087,-0.274658 1.2207,-0.610351 0.57983,-0.350953 1.11389,-0.701905 l 0,1.907349 z m -3.12805,-8.69751 q 0,-0.778198 -0.18311,-1.434326 -0.1831,-0.671387 -0.56457,-1.159668 -0.36621,-0.488281 -0.94605,-0.762939 -0.56457,-0.289917 -1.34277,-0.289917 -0.7782,0 -1.44958,0.305175 -0.67139,0.289917 -1.19019,0.854493 -0.50354,0.564575 -0.82397,1.373291 -0.30518,0.793457 -0.36621,1.800537 l 6.86645,0 0,-0.686646 z" />
      <path
         id="path3408"
         style="font-style:normal;font-variant:normal;font-weight:normal;font-stretch:normal;font-size:31.25px;line-height:0%;font-family:'Abyssinica SIL';-inkscape-font-specification:'Abyssinica SIL, Normal';text-align:start;writing-mode:lr-tb;text-anchor:start;fill:#ff00ff"
         d="m 431.26936,36.817966 q -0.53406,0.274659 -1.12915,0.564576 -0.57984,0.274658 -1.25123,0.488281 -0.65612,0.213623 -1.38855,0.350952 -0.71716,0.137329 -1.51062,0.137329 -1.64794,0 -2.97546,-0.579834 -1.31225,-0.595093 -2.24304,-1.63269 -0.93079,-1.052857 -1.43433,-2.487183 -0.50354,-1.434326 -0.50354,-3.112793 0,-1.968384 0.61035,-3.463745 0.61036,-1.495361 1.64795,-2.502441 1.0376,-1.022339 2.39563,-1.525879 1.37329,-0.518799 2.86866,-0.518799 1.02233,0 1.90734,0.213623 0.90027,0.198364 1.54114,0.595093 0.65613,0.396728 1.02234,0.976562 0.38147,0.579834 0.38147,1.342774 0,0.457763 -0.16785,0.808715 -0.15258,0.335694 -0.41198,0.579834 -0.2594,0.228882 -0.5951,0.350953 -0.32043,0.106811 -0.67138,0.106811 -0.5188,0 -0.90027,-0.167847 -0.38147,-0.183105 -0.67139,-0.36621 l 0,-2.716065 q -0.32043,-0.183105 -0.67138,-0.289917 -0.3357,-0.12207 -0.64087,-0.12207 -1.0376,0 -1.87684,0.473022 -0.82397,0.473023 -1.4038,1.312256 -0.56458,0.839233 -0.86975,1.998901 -0.30518,1.14441 -0.30518,2.502442 0,1.296997 0.32043,2.441406 0.3357,1.144409 0.97657,1.998901 0.65612,0.839234 1.61743,1.327515 0.97656,0.488281 2.2583,0.488281 1.09863,0 2.07519,-0.335693 0.99183,-0.350952 1.99891,-1.022339 l 0,1.327515 0,0.457763 z" />
      <path
         id="path3410"
         style="font-style:normal;font-variant:normal;font-weight:normal;font-stretch:normal;font-size:31.25px;line-height:0%;font-family:'Abyssinica SIL';-inkscape-font-specification:'Abyssinica SIL, Normal';text-align:start;writing-mode:lr-tb;text-anchor:start"
         d="m 445.67365,29.600559 q -1.35803,0 -2.21252,0.152588 -0.85449,0.152588 -1.41907,0.686646 -0.30517,0.289917 -0.48828,0.717163 -0.16785,0.427246 -0.2594,0.915527 -0.0763,0.488281 -0.10681,1.00708 -0.0153,0.518799 -0.0153,1.00708 l 0,1.708985 q 0,0.656128 -0.0305,1.296997 -0.0305,0.62561 -0.16784,1.205444 -0.12207,0.595093 -0.38147,1.12915 -0.2594,0.549317 -0.70191,1.022339 -0.39673,0.411988 -0.97656,0.671387 -0.57983,0.259399 -1.297,0.411987 -0.71716,0.167847 -1.52588,0.228882 -0.80871,0.06103 -1.64795,0.06103 l 0,-1.281738 q 0.19837,0 0.61036,-0.03052 0.41198,-0.03052 0.88501,-0.12207 0.48828,-0.09155 0.94604,-0.289917 0.45776,-0.183105 0.74768,-0.50354 0.24414,-0.274658 0.39673,-0.640869 0.15259,-0.366211 0.22888,-0.808716 0.0915,-0.427246 0.10681,-0.915527 0.0305,-0.488281 0.0305,-0.991822 0,-0.320434 -0.0153,-0.640869 0,-0.320434 0,-0.62561 0,-0.534058 0.0153,-1.113892 0.0305,-0.595092 0.12207,-1.159668 0.0915,-0.579834 0.27466,-1.083374 0.1831,-0.518798 0.50354,-0.915527 0.61035,-0.808716 1.4801,-1.205444 0.86975,-0.396729 1.83106,-0.610352 -0.48829,-0.106811 -0.94605,-0.24414 -0.45776,-0.13733 -0.88501,-0.350953 -0.42724,-0.213623 -0.80871,-0.50354 -0.36622,-0.289917 -0.67139,-0.686645 -0.32044,-0.396729 -0.50354,-0.900269 -0.18311,-0.518799 -0.27466,-1.083374 -0.0916,-0.579834 -0.12207,-1.159668 -0.0153,-0.595092 -0.0153,-1.12915 0,-0.305176 0,-0.62561 0.0153,-0.320435 0.0153,-0.64087 0,-0.50354 -0.0305,-0.991821 -0.0153,-0.488281 -0.10681,-0.915527 -0.0763,-0.442505 -0.22888,-0.808716 -0.15259,-0.366211 -0.39673,-0.640869 -0.28992,-0.320435 -0.74768,-0.50354 -0.45776,-0.198364 -0.94604,-0.289917 -0.47303,-0.09155 -0.88501,-0.122071 -0.41199,-0.03052 -0.61036,-0.03052 l 0,-1.281738 q 0.83924,0 1.64795,0.06103 0.80872,0.06104 1.52588,0.228882 0.71717,0.152587 1.297,0.411987 0.57983,0.259399 0.97656,0.671387 0.44251,0.473022 0.70191,1.022338 0.2594,0.534058 0.38147,1.129151 0.13732,0.595093 0.16784,1.220703 0.0305,0.62561 0.0305,1.281738 l 0,1.708985 q 0,0.488281 0.0153,1.00708 0.0305,0.518799 0.10681,1.00708 0.0915,0.488281 0.2594,0.915527 0.18311,0.427246 0.48828,0.717163 0.56458,0.534058 1.41907,0.686646 0.85449,0.152588 2.21252,0.152588 l 0,1.098632 0,0.305176 z" />
    </g>
    <path
       style="fill:#c8b7b7;fill-rule:evenodd;stroke:#800000;stroke-width:2;stroke-linecap:butt;stroke-linejoin:miter;stroke-miterlimit:4;stroke-dasharray:none;stroke-opacity:1"
       d="m 28.535593,48.546388 72.857147,0"
       id="path4207" />
    <path
       style="fill:#c8b7b7;fill-rule:evenodd;stroke:#000080;stroke-width:2;stroke-linecap:butt;stroke-linejoin:miter;stroke-miterlimit:4;stroke-dasharray:none;stroke-opacity:1"
       d="m 106.03559,48.546388 158.57142,0"
       id="path4207-3" />
    <path
       style="fill:#c8b7b7;fill-rule:evenodd;stroke:#ff00ff;stroke-width:2.00000024;stroke-linecap:butt;stroke-linejoin:miter;stroke-miterlimit:4;stroke-dasharray:none;stroke-opacity:1"
       d="m 270.89276,48.546388 159.28572,0"
       id="path4207-2" />
    <g
       id="text4242"
       style="font-style:normal;font-variant:normal;font-weight:normal;font-stretch:normal;font-size:15px;line-height:0%;font-family:'Abyssinica SIL';-inkscape-font-specification:'Abyssinica SIL, Normal';text-align:start;letter-spacing:0px;word-spacing:0px;writing-mode:lr-tb;text-anchor:start;fill:#800000;fill-opacity:1;stroke:none;stroke-width:1px;stroke-linecap:butt;stroke-linejoin:miter;stroke-opacity:1">
      <path
         id="path3413"
         style="font-style:normal;font-variant:normal;font-weight:normal;font-stretch:normal;font-size:15px;line-height:0%;font-family:'Abyssinica SIL';-inkscape-font-specification:'Abyssinica SIL, Normal';text-align:start;writing-mode:lr-tb;text-anchor:start;fill:#800000;fill-opacity:1"
         d="m 46.37896,58.727303 q 0,1.091308 -0.351563,2.050781 -0.351562,0.959472 -0.996094,1.677246 -0.637207,0.710449 -1.538086,1.12793 -0.900878,0.410156 -1.999511,0.410156 -1.105957,0 -2.01416,-0.395508 -0.900879,-0.402832 -1.545411,-1.113281 -0.644531,-0.710449 -0.996093,-1.669922 -0.351563,-0.966797 -0.351563,-2.102051 0,-1.098633 0.344238,-2.058105 0.344239,-0.959473 0.981446,-1.669922 0.637207,-0.717774 1.538086,-1.12793 0.908203,-0.410156 2.028808,-0.410156 1.113282,0 2.01416,0.41748 0.908204,0.417481 1.545411,1.135254 0.644531,0.717774 0.988769,1.677246 0.351563,0.959473 0.351563,2.050782 z m -1.73584,0.01465 q 0,-0.915527 -0.197754,-1.721191 -0.197754,-0.812989 -0.593262,-1.413575 -0.395508,-0.60791 -0.988769,-0.952148 -0.585938,-0.351563 -1.369629,-0.351563 -0.812989,0 -1.413574,0.351563 -0.600586,0.351562 -0.996094,0.959473 -0.395508,0.600586 -0.585938,1.40625 -0.190429,0.798339 -0.190429,1.691894 0,0.900879 0.190429,1.713867 0.197754,0.805664 0.585938,1.413575 0.395508,0.60791 0.981445,0.966796 0.593262,0.358887 1.391602,0.358887 0.812988,0 1.40625,-0.358887 0.600586,-0.358886 0.996093,-0.959472 0.395508,-0.60791 0.585938,-1.40625 0.197754,-0.805664 0.197754,-1.699219 z" />
      <path
         id="path3415"
         style="font-style:normal;font-variant:normal;font-weight:normal;font-stretch:normal;font-size:15px;line-height:0%;font-family:'Abyssinica SIL';-inkscape-font-specification:'Abyssinica SIL, Normal';text-align:start;writing-mode:lr-tb;text-anchor:start;fill:#800000;fill-opacity:1"
         d="m 54.831108,60.031013 q 0,0.886231 -0.263672,1.611329 -0.256347,0.717773 -0.74707,1.230468 -0.483399,0.505371 -1.193848,0.783692 -0.703125,0.27832 -1.589355,0.27832 -0.205078,0 -0.439453,-0.02197 -0.234375,-0.01465 -0.432129,-0.04395 -0.234375,-0.0293 -0.461426,-0.07324 l 0,2.233887 q 0,0.13916 0.09522,0.219726 0.09521,0.08057 0.234375,0.09521 l 0.88623,0.09522 0,0.578613 -3.647461,0 0,-0.578613 0.717774,-0.09522 q 0.13916,-0.01465 0.227051,-0.09521 0.08789,-0.08057 0.08789,-0.219726 l 0,-8.444825 -1.032715,0 0,-0.490722 1.845703,-0.571289 0.585938,0 0,0.74707 q 0.322266,-0.256348 0.688477,-0.461426 0.314941,-0.175781 0.725097,-0.322265 0.410156,-0.146485 0.84961,-0.146485 0.578613,0 1.098632,0.263672 0.52002,0.263672 0.908203,0.74707 0.395508,0.483399 0.622559,1.164551 0.234375,0.681153 0.234375,1.516113 z m -1.501465,0.212403 q 0,-0.578613 -0.13916,-1.091309 -0.131836,-0.520019 -0.395508,-0.908203 -0.263672,-0.395508 -0.659179,-0.622558 -0.388184,-0.227051 -0.900879,-0.227051 -0.285645,0 -0.563965,0.07324 -0.270996,0.07324 -0.483399,0.153809 -0.249023,0.09521 -0.483398,0.219726 l 0,5.163574 q 0.175781,0.06592 0.373535,0.117188 0.168457,0.04395 0.388184,0.08057 0.219726,0.03662 0.454101,0.03662 0.615235,0 1.069336,-0.249023 0.454102,-0.249024 0.747071,-0.65918 0.300292,-0.41748 0.446777,-0.959472 0.146484,-0.541993 0.146484,-1.12793 z" />
      <path
         id="path3417"
         style="font-style:normal;font-variant:normal;font-weight:normal;font-stretch:normal;font-size:15px;line-height:0%;font-family:'Abyssinica SIL';-inkscape-font-specification:'Abyssinica SIL, Normal';text-align:start;writing-mode:lr-tb;text-anchor:start;fill:#800000;fill-opacity:1"
         d="m 60.360893,63.436775 q -0.27832,0.13916 -0.60791,0.249024 -0.27832,0.09521 -0.644531,0.168457 -0.366211,0.08057 -0.769043,0.08057 -0.84961,0 -1.230469,-0.395508 -0.380859,-0.395508 -0.380859,-1.289062 l 0,-4.980469 -0.959473,0 0,-0.490723 1.025391,-0.483398 0.673828,-1.589356 0.65918,0 0,1.816407 2.116699,0 0,0.74707 -2.116699,0 0,4.189453 q 0,0.446777 0.07324,0.761719 0.08057,0.307617 0.22705,0.505371 0.153809,0.19043 0.373536,0.27832 0.22705,0.08789 0.527343,0.08789 0.219727,0 0.402832,-0.03662 0.19043,-0.03662 0.32959,-0.08789 0.161133,-0.05859 0.300293,-0.131836 l 0,0.600586 z" />
      <path
         id="path3419"
         style="font-style:normal;font-variant:normal;font-weight:normal;font-stretch:normal;font-size:15px;line-height:0%;font-family:'Abyssinica SIL';-inkscape-font-specification:'Abyssinica SIL, Normal';text-align:start;writing-mode:lr-tb;text-anchor:start;fill:#800000;fill-opacity:1"
         d="m 63.759331,54.047127 q 0,0.190429 -0.07324,0.366211 -0.06592,0.168457 -0.19043,0.292968 -0.124512,0.124512 -0.292969,0.197754 -0.161133,0.07324 -0.351562,0.07324 -0.19043,0 -0.366211,-0.07324 -0.168457,-0.07324 -0.292969,-0.197754 -0.124512,-0.124511 -0.197754,-0.292968 -0.07324,-0.175782 -0.07324,-0.366211 0,-0.19043 0.07324,-0.358887 0.07324,-0.168457 0.197754,-0.292969 0.124512,-0.124511 0.292969,-0.190429 0.175781,-0.07324 0.366211,-0.07324 0.190429,0 0.351562,0.07324 0.168457,0.06592 0.292969,0.190429 0.124512,0.124512 0.19043,0.292969 0.07324,0.168457 0.07324,0.358887 z m -2.753907,9.70459 0,-0.585938 0.732422,-0.04395 q 0.139161,-0.01465 0.227051,-0.102539 0.08789,-0.08789 0.08789,-0.227051 l 0,-5.354004 -1.032715,0 0,-0.527344 1.831055,-0.571289 0.593261,0 0,6.452637 q 0,0.13916 0.08789,0.227051 0.09522,0.08789 0.227051,0.102539 l 0.769043,0.04395 0,0.585938 -3.52295,0 z" />
      <path
         id="path3421"
         style="font-style:normal;font-variant:normal;font-weight:normal;font-stretch:normal;font-size:15px;line-height:0%;font-family:'Abyssinica SIL';-inkscape-font-specification:'Abyssinica SIL, Normal';text-align:start;writing-mode:lr-tb;text-anchor:start;fill:#800000;fill-opacity:1"
         d="m 72.680229,60.148201 q 0,0.79834 -0.256347,1.494141 -0.249024,0.688476 -0.717774,1.201171 -0.461426,0.505372 -1.12793,0.79834 -0.659179,0.292969 -1.479492,0.292969 -0.820312,0 -1.479492,-0.285644 -0.65918,-0.292969 -1.120605,-0.79834 -0.461426,-0.505371 -0.71045,-1.193848 -0.241699,-0.695801 -0.241699,-1.508789 0,-0.79834 0.249024,-1.494141 0.249023,-0.6958 0.717773,-1.208496 0.46875,-0.520019 1.12793,-0.812988 0.666504,-0.292969 1.501465,-0.292969 0.83496,0 1.49414,0.300293 0.65918,0.300293 1.113281,0.820313 0.454102,0.512695 0.688477,1.208496 0.241699,0.688476 0.241699,1.479492 z m -1.560058,-0.01465 q 0,-0.615235 -0.124512,-1.1792 -0.117188,-0.563965 -0.366211,-0.996093 -0.249024,-0.432129 -0.622559,-0.688477 -0.373535,-0.256348 -0.878906,-0.256348 -0.520019,0 -0.900879,0.256348 -0.380859,0.256348 -0.629883,0.688477 -0.241699,0.432128 -0.358886,0.996093 -0.117188,0.563965 -0.117188,1.1792 0,0.60791 0.117188,1.171875 0.124511,0.563964 0.373535,0.996093 0.249023,0.432129 0.622558,0.695801 0.373536,0.256348 0.878907,0.256348 0.512695,0 0.893554,-0.256348 0.38086,-0.256348 0.622559,-0.688476 0.249023,-0.432129 0.366211,-0.996094 0.124512,-0.563965 0.124512,-1.179199 z" />
      <path
         id="path3423"
         style="font-style:normal;font-variant:normal;font-weight:normal;font-stretch:normal;font-size:15px;line-height:0%;font-family:'Abyssinica SIL';-inkscape-font-specification:'Abyssinica SIL, Normal';text-align:start;writing-mode:lr-tb;text-anchor:start;fill:#800000;fill-opacity:1"
         d="m 78.070854,63.751717 0,-0.585938 0.629883,-0.04395 q 0.131836,-0.01465 0.219727,-0.102539 0.09521,-0.08789 0.09521,-0.227051 l 0,-3.903809 q 0,-0.710449 -0.329589,-1.07666 -0.32959,-0.373535 -1.113282,-0.373535 -0.432129,0 -0.849609,0.124512 -0.417481,0.117187 -0.79834,0.307617 l 0,4.921875 q 0,0.13916 0.08789,0.227051 0.08789,0.08789 0.22705,0.102539 l 0.629883,0.04395 0,0.585938 -3.391113,0 0,-0.585938 0.732422,-0.04395 q 0.13916,-0.01465 0.227051,-0.102539 0.08789,-0.08789 0.08789,-0.227051 l 0,-5.20752 -1.047363,0 0,-0.490722 1.831055,-0.571289 0.615234,0 0,0.74707 q 0.314941,-0.175781 0.637207,-0.344238 0.32959,-0.168457 0.651856,-0.300293 0.322265,-0.131836 0.622558,-0.205078 0.300293,-0.08057 0.563965,-0.08057 0.981445,0 1.494141,0.60791 0.512695,0.607911 0.512695,1.706543 l 0,4.138184 q 0,0.13916 0.08789,0.227051 0.09521,0.08789 0.22705,0.102539 l 0.65918,0.04395 0,0.585938 -3.310547,0 z" />
      <path
         id="path3425"
         style="font-style:normal;font-variant:normal;font-weight:normal;font-stretch:normal;font-size:15px;line-height:0%;font-family:'Abyssinica SIL';-inkscape-font-specification:'Abyssinica SIL, Normal';text-align:start;writing-mode:lr-tb;text-anchor:start;fill:#800000;fill-opacity:1"
         d="M 86.837944,63.751717 86.64019,62.865486 q -0.395508,0.300293 -0.812988,0.534668 -0.183106,0.102539 -0.388184,0.197754 -0.205078,0.09522 -0.424804,0.168457 -0.212403,0.08057 -0.439454,0.124512 -0.219726,0.04394 -0.439453,0.04394 -0.410156,0 -0.769043,-0.13916 -0.351562,-0.13916 -0.615234,-0.402832 -0.263672,-0.263672 -0.417481,-0.637207 -0.146484,-0.373535 -0.146484,-0.84961 0,-0.27832 0.05127,-0.527343 0.05859,-0.249024 0.22705,-0.483399 0.168457,-0.234375 0.46875,-0.446777 0.307618,-0.219727 0.79834,-0.432129 0.498047,-0.212402 1.208496,-0.41748 0.717774,-0.212403 1.699219,-0.424805 l 0,-0.644531 q 0,-0.754395 -0.336914,-1.113282 -0.336914,-0.366211 -1.062012,-0.366211 -0.395507,0 -0.673828,0.07324 -0.27832,0.07324 -0.388183,0.117187 l 0,1.303711 -1.091309,0 q -0.102539,0 -0.205078,-0.01465 -0.09522,-0.01465 -0.175781,-0.05859 -0.08057,-0.05127 -0.131836,-0.131836 -0.04395,-0.08789 -0.04395,-0.227051 0,-0.461426 0.278321,-0.791015 0.27832,-0.336915 0.725097,-0.556641 0.446778,-0.219727 1.003418,-0.322266 0.556641,-0.102539 1.113282,-0.102539 0.6958,0 1.149902,0.168457 0.461426,0.168457 0.725098,0.46875 0.270996,0.300293 0.380859,0.710449 0.109863,0.410157 0.109863,0.900879 l 0,4.204102 q 0,0.13916 0.08789,0.227051 0.09521,0.08789 0.227051,0.102539 l 0.725097,0.04395 0,0.585938 -2.219238,0 z M 86.64019,59.745369 q -1.010742,0.256348 -1.604004,0.505371 -0.593262,0.249023 -0.900879,0.505371 -0.300293,0.249024 -0.388183,0.512695 -0.08057,0.256348 -0.08057,0.534668 0,0.234375 0.07324,0.461426 0.08057,0.219727 0.219727,0.395508 0.146484,0.175781 0.351563,0.285645 0.212402,0.102539 0.483398,0.102539 0.300293,0 0.622559,-0.109864 0.329589,-0.109863 0.600586,-0.241699 0.314941,-0.153808 0.622558,-0.358887 l 0,-2.592773 z" />
      <path
         id="path3427"
         style="font-style:normal;font-variant:normal;font-weight:normal;font-stretch:normal;font-size:15px;line-height:0%;font-family:'Abyssinica SIL';-inkscape-font-specification:'Abyssinica SIL, Normal';text-align:start;writing-mode:lr-tb;text-anchor:start;fill:#800000;fill-opacity:1"
         d="m 89.694389,63.751717 0,-0.585938 0.79834,-0.04395 q 0.102539,0 0.212403,-0.102539 0.117187,-0.109864 0.117187,-0.212403 l 0,-9.030761 -1.142578,0 0,-0.498047 1.918945,-0.578613 0.615235,0 0,10.107421 q 0,0.102539 0.102539,0.212403 0.109863,0.102539 0.212402,0.102539 l 0.812988,0.04395 0,0.585938 -3.647461,0 z" />
    </g>
    <g
       id="text4242-9"
       style="font-style:normal;font-variant:normal;font-weight:normal;font-stretch:normal;font-size:15px;line-height:0%;font-family:'Abyssinica SIL';-inkscape-font-specification:'Abyssinica SIL, Normal';text-align:start;letter-spacing:0px;word-spacing:0px;writing-mode:lr-tb;text-anchor:start;fill:#000080;fill-opacity:1;stroke:none;stroke-width:1px;stroke-linecap:butt;stroke-linejoin:miter;stroke-opacity:1">
      <path
         id="path3430"
         style=""
         d="m 166.7361,58.727303 q 0,1.091308 -0.35156,2.050781 -0.35157,0.959472 -0.9961,1.677246 -0.6372,0.710449 -1.53808,1.12793 -0.90088,0.410156 -1.99951,0.410156 -1.10596,0 -2.01416,-0.395508 -0.90088,-0.402832 -1.54541,-1.113281 -0.64454,-0.710449 -0.9961,-1.669922 -0.35156,-0.966797 -0.35156,-2.102051 0,-1.098633 0.34424,-2.058105 0.34424,-0.959473 0.98144,-1.669922 0.63721,-0.717774 1.53809,-1.12793 0.9082,-0.410156 2.02881,-0.410156 1.11328,0 2.01416,0.41748 0.9082,0.417481 1.54541,1.135254 0.64453,0.717774 0.98877,1.677246 0.35156,0.959473 0.35156,2.050782 z m -1.73584,0.01465 q 0,-0.915527 -0.19775,-1.721191 -0.19776,-0.812989 -0.59327,-1.413575 -0.3955,-0.60791 -0.98877,-0.952148 -0.58593,-0.351563 -1.36962,-0.351563 -0.81299,0 -1.41358,0.351563 -0.60058,0.351562 -0.99609,0.959473 -0.39551,0.600586 -0.58594,1.40625 -0.19043,0.798339 -0.19043,1.691894 0,0.900879 0.19043,1.713867 0.19775,0.805664 0.58594,1.413575 0.39551,0.60791 0.98144,0.966796 0.59326,0.358887 1.3916,0.358887 0.81299,0 1.40625,-0.358887 0.60059,-0.358886 0.9961,-0.959472 0.39551,-0.60791 0.58594,-1.40625 0.19775,-0.805664 0.19775,-1.699219 z" />
      <path
         id="path3432"
         style=""
         d="m 175.18825,60.031013 q 0,0.886231 -0.26367,1.611329 -0.25635,0.717773 -0.74707,1.230468 -0.4834,0.505371 -1.19385,0.783692 -0.70313,0.27832 -1.58936,0.27832 -0.20508,0 -0.43945,-0.02197 -0.23438,-0.01465 -0.43213,-0.04395 -0.23437,-0.0293 -0.46143,-0.07324 l 0,2.233887 q 0,0.13916 0.0952,0.219726 0.0952,0.08057 0.23437,0.09521 l 0.88623,0.09522 0,0.578613 -3.64746,0 0,-0.578613 0.71778,-0.09522 q 0.13916,-0.01465 0.22705,-0.09521 0.0879,-0.08057 0.0879,-0.219726 l 0,-8.444825 -1.03272,0 0,-0.490722 1.84571,-0.571289 0.58593,0 0,0.74707 q 0.32227,-0.256348 0.68848,-0.461426 0.31494,-0.175781 0.7251,-0.322265 0.41016,-0.146485 0.84961,-0.146485 0.57861,0 1.09863,0.263672 0.52002,0.263672 0.9082,0.74707 0.39551,0.483399 0.62256,1.164551 0.23438,0.681153 0.23438,1.516113 z m -1.50147,0.212403 q 0,-0.578613 -0.13916,-1.091309 -0.13183,-0.520019 -0.39551,-0.908203 -0.26367,-0.395508 -0.65917,-0.622558 -0.38819,-0.227051 -0.90088,-0.227051 -0.28565,0 -0.56397,0.07324 -0.27099,0.07324 -0.4834,0.153809 -0.24902,0.09521 -0.4834,0.219726 l 0,5.163574 q 0.17579,0.06592 0.37354,0.117188 0.16846,0.04395 0.38818,0.08057 0.21973,0.03662 0.4541,0.03662 0.61524,0 1.06934,-0.249023 0.4541,-0.249024 0.74707,-0.65918 0.30029,-0.41748 0.44678,-0.959472 0.14648,-0.541993 0.14648,-1.12793 z" />
      <path
         id="path3434"
         style=""
         d="m 180.71803,63.436775 q -0.27832,0.13916 -0.60791,0.249024 -0.27832,0.09521 -0.64453,0.168457 -0.36621,0.08057 -0.76904,0.08057 -0.84961,0 -1.23047,-0.395508 -0.38086,-0.395508 -0.38086,-1.289062 l 0,-4.980469 -0.95947,0 0,-0.490723 1.02539,-0.483398 0.67383,-1.589356 0.65918,0 0,1.816407 2.1167,0 0,0.74707 -2.1167,0 0,4.189453 q 0,0.446777 0.0732,0.761719 0.0806,0.307617 0.22705,0.505371 0.15381,0.19043 0.37353,0.27832 0.22706,0.08789 0.52735,0.08789 0.21972,0 0.40283,-0.03662 0.19043,-0.03662 0.32959,-0.08789 0.16113,-0.05859 0.30029,-0.131836 l 0,0.600586 z" />
      <path
         id="path3436"
         style=""
         d="m 184.11647,54.047127 q 0,0.190429 -0.0732,0.366211 -0.0659,0.168457 -0.19043,0.292968 -0.12451,0.124512 -0.29297,0.197754 -0.16113,0.07324 -0.35156,0.07324 -0.19043,0 -0.36621,-0.07324 -0.16846,-0.07324 -0.29297,-0.197754 -0.12451,-0.124511 -0.19776,-0.292968 -0.0732,-0.175782 -0.0732,-0.366211 0,-0.19043 0.0732,-0.358887 0.0733,-0.168457 0.19776,-0.292969 0.12451,-0.124511 0.29297,-0.190429 0.17578,-0.07324 0.36621,-0.07324 0.19043,0 0.35156,0.07324 0.16846,0.06592 0.29297,0.190429 0.12451,0.124512 0.19043,0.292969 0.0732,0.168457 0.0732,0.358887 z m -2.75391,9.70459 0,-0.585938 0.73243,-0.04395 q 0.13916,-0.01465 0.22705,-0.102539 0.0879,-0.08789 0.0879,-0.227051 l 0,-5.354004 -1.03272,0 0,-0.527344 1.83106,-0.571289 0.59326,0 0,6.452637 q 0,0.13916 0.0879,0.227051 0.0952,0.08789 0.22705,0.102539 l 0.76904,0.04395 0,0.585938 -3.52295,0 z" />
      <path
         id="path3438"
         style=""
         d="m 193.03737,60.148201 q 0,0.79834 -0.25635,1.494141 -0.24902,0.688476 -0.71777,1.201171 -0.46143,0.505372 -1.12793,0.79834 -0.65918,0.292969 -1.47949,0.292969 -0.82032,0 -1.4795,-0.285644 -0.65918,-0.292969 -1.1206,-0.79834 -0.46143,-0.505371 -0.71045,-1.193848 -0.2417,-0.695801 -0.2417,-1.508789 0,-0.79834 0.24902,-1.494141 0.24903,-0.6958 0.71778,-1.208496 0.46875,-0.520019 1.12793,-0.812988 0.6665,-0.292969 1.50146,-0.292969 0.83496,0 1.49414,0.300293 0.65918,0.300293 1.11328,0.820313 0.4541,0.512695 0.68848,1.208496 0.2417,0.688476 0.2417,1.479492 z m -1.56006,-0.01465 q 0,-0.615235 -0.12451,-1.1792 -0.11719,-0.563965 -0.36621,-0.996093 -0.24903,-0.432129 -0.62256,-0.688477 -0.37354,-0.256348 -0.87891,-0.256348 -0.52002,0 -0.90088,0.256348 -0.38086,0.256348 -0.62988,0.688477 -0.2417,0.432128 -0.35889,0.996093 -0.11718,0.563965 -0.11718,1.1792 0,0.60791 0.11718,1.171875 0.12452,0.563964 0.37354,0.996093 0.24902,0.432129 0.62256,0.695801 0.37353,0.256348 0.8789,0.256348 0.5127,0 0.89356,-0.256348 0.38086,-0.256348 0.62256,-0.688476 0.24902,-0.432129 0.36621,-0.996094 0.12451,-0.563965 0.12451,-1.179199 z" />
      <path
         id="path3440"
         style=""
         d="m 198.42799,63.751717 0,-0.585938 0.62989,-0.04395 q 0.13183,-0.01465 0.21972,-0.102539 0.0952,-0.08789 0.0952,-0.227051 l 0,-3.903809 q 0,-0.710449 -0.32959,-1.07666 -0.32959,-0.373535 -1.11328,-0.373535 -0.43213,0 -0.84961,0.124512 -0.41748,0.117187 -0.79834,0.307617 l 0,4.921875 q 0,0.13916 0.0879,0.227051 0.0879,0.08789 0.22705,0.102539 l 0.62988,0.04395 0,0.585938 -3.39111,0 0,-0.585938 0.73242,-0.04395 q 0.13916,-0.01465 0.22705,-0.102539 0.0879,-0.08789 0.0879,-0.227051 l 0,-5.20752 -1.04736,0 0,-0.490722 1.83105,-0.571289 0.61524,0 0,0.74707 q 0.31494,-0.175781 0.6372,-0.344238 0.32959,-0.168457 0.65186,-0.300293 0.32227,-0.131836 0.62256,-0.205078 0.30029,-0.08057 0.56396,-0.08057 0.98145,0 1.49414,0.60791 0.5127,0.607911 0.5127,1.706543 l 0,4.138184 q 0,0.13916 0.0879,0.227051 0.0952,0.08789 0.22705,0.102539 l 0.65918,0.04395 0,0.585938 -3.31055,0 z" />
      <path
         id="path3442"
         style=""
         d="m 207.19508,63.751717 -0.19775,-0.886231 q -0.39551,0.300293 -0.81299,0.534668 -0.1831,0.102539 -0.38818,0.197754 -0.20508,0.09522 -0.42481,0.168457 -0.2124,0.08057 -0.43945,0.124512 -0.21973,0.04394 -0.43945,0.04394 -0.41016,0 -0.76905,-0.13916 -0.35156,-0.13916 -0.61523,-0.402832 -0.26367,-0.263672 -0.41748,-0.637207 -0.14649,-0.373535 -0.14649,-0.84961 0,-0.27832 0.0513,-0.527343 0.0586,-0.249024 0.22706,-0.483399 0.16845,-0.234375 0.46875,-0.446777 0.30761,-0.219727 0.79833,-0.432129 0.49805,-0.212402 1.2085,-0.41748 0.71777,-0.212403 1.69922,-0.424805 l 0,-0.644531 q 0,-0.754395 -0.33691,-1.113282 -0.33692,-0.366211 -1.06202,-0.366211 -0.3955,0 -0.67382,0.07324 -0.27832,0.07324 -0.38819,0.117187 l 0,1.303711 -1.09131,0 q -0.10254,0 -0.20507,-0.01465 -0.0952,-0.01465 -0.17579,-0.05859 -0.0806,-0.05127 -0.13183,-0.131836 -0.0439,-0.08789 -0.0439,-0.227051 0,-0.461426 0.27832,-0.791015 0.27832,-0.336915 0.7251,-0.556641 0.44678,-0.219727 1.00342,-0.322266 0.55664,-0.102539 1.11328,-0.102539 0.6958,0 1.1499,0.168457 0.46143,0.168457 0.7251,0.46875 0.271,0.300293 0.38086,0.710449 0.10986,0.410157 0.10986,0.900879 l 0,4.204102 q 0,0.13916 0.0879,0.227051 0.0952,0.08789 0.22705,0.102539 l 0.7251,0.04395 0,0.585938 -2.21924,0 z m -0.19775,-4.006348 q -1.01074,0.256348 -1.604,0.505371 -0.59327,0.249023 -0.90088,0.505371 -0.3003,0.249024 -0.38819,0.512695 -0.0806,0.256348 -0.0806,0.534668 0,0.234375 0.0732,0.461426 0.0806,0.219727 0.21973,0.395508 0.14648,0.175781 0.35156,0.285645 0.2124,0.102539 0.4834,0.102539 0.30029,0 0.62256,-0.109864 0.32959,-0.109863 0.60058,-0.241699 0.31494,-0.153808 0.62256,-0.358887 l 0,-2.592773 z" />
      <path
         id="path3444"
         style=""
         d="m 210.05153,63.751717 0,-0.585938 0.79834,-0.04395 q 0.10254,0 0.2124,-0.102539 0.11719,-0.109864 0.11719,-0.212403 l 0,-9.030761 -1.14258,0 0,-0.498047 1.91895,-0.578613 0.61523,0 0,10.107421 q 0,0.102539 0.10254,0.212403 0.10986,0.102539 0.2124,0.102539 l 0.81299,0.04395 0,0.585938 -3.64746,0 z" />
    </g>
    <g
       id="text4242-7"
       style="font-style:normal;font-variant:normal;font-weight:normal;font-stretch:normal;font-size:15px;line-height:0%;font-family:'Abyssinica SIL';-inkscape-font-specification:'Abyssinica SIL, Normal';text-align:start;letter-spacing:0px;word-spacing:0px;writing-mode:lr-tb;text-anchor:start;fill:#ff00ff;fill-opacity:1;stroke:none;stroke-width:1px;stroke-linecap:butt;stroke-linejoin:miter;stroke-opacity:1">
      <path
         id="path3447"
         style=""
         d="m 331.95041,58.727303 q 0,1.091308 -0.35156,2.050781 -0.35157,0.959472 -0.9961,1.677246 -0.6372,0.710449 -1.53808,1.12793 -0.90088,0.410156 -1.99951,0.410156 -1.10596,0 -2.01417,-0.395508 -0.90087,-0.402832 -1.54541,-1.113281 -0.64453,-0.710449 -0.99609,-1.669922 -0.35156,-0.966797 -0.35156,-2.102051 0,-1.098633 0.34424,-2.058105 0.34424,-0.959473 0.98144,-1.669922 0.63721,-0.717774 1.53809,-1.12793 0.9082,-0.410156 2.02881,-0.410156 1.11328,0 2.01416,0.41748 0.9082,0.417481 1.54541,1.135254 0.64453,0.717774 0.98877,1.677246 0.35156,0.959473 0.35156,2.050782 z m -1.73584,0.01465 q 0,-0.915527 -0.19775,-1.721191 -0.19776,-0.812989 -0.59327,-1.413575 -0.3955,-0.60791 -0.98877,-0.952148 -0.58593,-0.351563 -1.36962,-0.351563 -0.81299,0 -1.41358,0.351563 -0.60059,0.351562 -0.99609,0.959473 -0.39551,0.600586 -0.58594,1.40625 -0.19043,0.798339 -0.19043,1.691894 0,0.900879 0.19043,1.713867 0.19775,0.805664 0.58594,1.413575 0.3955,0.60791 0.98144,0.966796 0.59326,0.358887 1.3916,0.358887 0.81299,0 1.40625,-0.358887 0.60059,-0.358886 0.9961,-0.959472 0.39551,-0.60791 0.58594,-1.40625 0.19775,-0.805664 0.19775,-1.699219 z" />
      <path
         id="path3449"
         style=""
         d="m 340.40256,60.031013 q 0,0.886231 -0.26367,1.611329 -0.25635,0.717773 -0.74707,1.230468 -0.4834,0.505371 -1.19385,0.783692 -0.70313,0.27832 -1.58936,0.27832 -0.20508,0 -0.43945,-0.02197 -0.23438,-0.01465 -0.43213,-0.04395 -0.23437,-0.0293 -0.46143,-0.07324 l 0,2.233887 q 0,0.13916 0.0952,0.219726 0.0952,0.08057 0.23437,0.09521 l 0.88623,0.09522 0,0.578613 -3.64746,0 0,-0.578613 0.71778,-0.09522 q 0.13916,-0.01465 0.22705,-0.09521 0.0879,-0.08057 0.0879,-0.219726 l 0,-8.444825 -1.03272,0 0,-0.490722 1.84571,-0.571289 0.58593,0 0,0.74707 q 0.32227,-0.256348 0.68848,-0.461426 0.31494,-0.175781 0.7251,-0.322265 0.41015,-0.146485 0.84961,-0.146485 0.57861,0 1.09863,0.263672 0.52002,0.263672 0.9082,0.74707 0.39551,0.483399 0.62256,1.164551 0.23438,0.681153 0.23438,1.516113 z m -1.50147,0.212403 q 0,-0.578613 -0.13916,-1.091309 -0.13183,-0.520019 -0.39551,-0.908203 -0.26367,-0.395508 -0.65918,-0.622558 -0.38818,-0.227051 -0.90087,-0.227051 -0.28565,0 -0.56397,0.07324 -0.27099,0.07324 -0.4834,0.153809 -0.24902,0.09521 -0.4834,0.219726 l 0,5.163574 q 0.17579,0.06592 0.37354,0.117188 0.16846,0.04395 0.38818,0.08057 0.21973,0.03662 0.4541,0.03662 0.61524,0 1.06934,-0.249023 0.4541,-0.249024 0.74707,-0.65918 0.30029,-0.41748 0.44678,-0.959472 0.14648,-0.541993 0.14648,-1.12793 z" />
      <path
         id="path3451"
         style=""
         d="m 345.93234,63.436775 q -0.27832,0.13916 -0.60791,0.249024 -0.27832,0.09521 -0.64453,0.168457 -0.36621,0.08057 -0.76904,0.08057 -0.84961,0 -1.23047,-0.395508 -0.38086,-0.395508 -0.38086,-1.289062 l 0,-4.980469 -0.95947,0 0,-0.490723 1.02539,-0.483398 0.67383,-1.589356 0.65918,0 0,1.816407 2.1167,0 0,0.74707 -2.1167,0 0,4.189453 q 0,0.446777 0.0732,0.761719 0.0806,0.307617 0.22705,0.505371 0.15381,0.19043 0.37353,0.27832 0.22705,0.08789 0.52735,0.08789 0.21972,0 0.40283,-0.03662 0.19043,-0.03662 0.32959,-0.08789 0.16113,-0.05859 0.30029,-0.131836 l 0,0.600586 z" />
      <path
         id="path3453"
         style=""
         d="m 349.33078,54.047127 q 0,0.190429 -0.0732,0.366211 -0.0659,0.168457 -0.19043,0.292968 -0.12451,0.124512 -0.29297,0.197754 -0.16113,0.07324 -0.35156,0.07324 -0.19043,0 -0.36621,-0.07324 -0.16846,-0.07324 -0.29297,-0.197754 -0.12451,-0.124511 -0.19776,-0.292968 -0.0732,-0.175782 -0.0732,-0.366211 0,-0.19043 0.0732,-0.358887 0.0733,-0.168457 0.19776,-0.292969 0.12451,-0.124511 0.29297,-0.190429 0.17578,-0.07324 0.36621,-0.07324 0.19043,0 0.35156,0.07324 0.16846,0.06592 0.29297,0.190429 0.12451,0.124512 0.19043,0.292969 0.0732,0.168457 0.0732,0.358887 z m -2.75391,9.70459 0,-0.585938 0.73243,-0.04395 q 0.13916,-0.01465 0.22705,-0.102539 0.0879,-0.08789 0.0879,-0.227051 l 0,-5.354004 -1.03272,0 0,-0.527344 1.83106,-0.571289 0.59326,0 0,6.452637 q 0,0.13916 0.0879,0.227051 0.0952,0.08789 0.22705,0.102539 l 0.76904,0.04395 0,0.585938 -3.52295,0 z" />
      <path
         id="path3455"
         style=""
         d="m 358.25168,60.148201 q 0,0.79834 -0.25635,1.494141 -0.24902,0.688476 -0.71777,1.201171 -0.46143,0.505372 -1.12793,0.79834 -0.65918,0.292969 -1.47949,0.292969 -0.82032,0 -1.4795,-0.285644 -0.65918,-0.292969 -1.1206,-0.79834 -0.46143,-0.505371 -0.71045,-1.193848 -0.2417,-0.695801 -0.2417,-1.508789 0,-0.79834 0.24902,-1.494141 0.24903,-0.6958 0.71778,-1.208496 0.46875,-0.520019 1.12793,-0.812988 0.6665,-0.292969 1.50146,-0.292969 0.83496,0 1.49414,0.300293 0.65918,0.300293 1.11328,0.820313 0.4541,0.512695 0.68848,1.208496 0.2417,0.688476 0.2417,1.479492 z m -1.56006,-0.01465 q 0,-0.615235 -0.12451,-1.1792 -0.11719,-0.563965 -0.36621,-0.996093 -0.24903,-0.432129 -0.62256,-0.688477 -0.37354,-0.256348 -0.87891,-0.256348 -0.52002,0 -0.90088,0.256348 -0.38086,0.256348 -0.62988,0.688477 -0.2417,0.432128 -0.35889,0.996093 -0.11718,0.563965 -0.11718,1.1792 0,0.60791 0.11718,1.171875 0.12452,0.563964 0.37354,0.996093 0.24902,0.432129 0.62256,0.695801 0.37353,0.256348 0.8789,0.256348 0.5127,0 0.89356,-0.256348 0.38086,-0.256348 0.62256,-0.688476 0.24902,-0.432129 0.36621,-0.996094 0.12451,-0.563965 0.12451,-1.179199 z" />
      <path
         id="path3457"
         style=""
         d="m 363.6423,63.751717 0,-0.585938 0.62989,-0.04395 q 0.13183,-0.01465 0.21972,-0.102539 0.0952,-0.08789 0.0952,-0.227051 l 0,-3.903809 q 0,-0.710449 -0.32959,-1.07666 -0.32959,-0.373535 -1.11328,-0.373535 -0.43213,0 -0.84961,0.124512 -0.41748,0.117187 -0.79834,0.307617 l 0,4.921875 q 0,0.13916 0.0879,0.227051 0.0879,0.08789 0.22705,0.102539 l 0.62988,0.04395 0,0.585938 -3.39111,0 0,-0.585938 0.73242,-0.04395 q 0.13916,-0.01465 0.22705,-0.102539 0.0879,-0.08789 0.0879,-0.227051 l 0,-5.20752 -1.04736,0 0,-0.490722 1.83105,-0.571289 0.61524,0 0,0.74707 q 0.31494,-0.175781 0.6372,-0.344238 0.32959,-0.168457 0.65186,-0.300293 0.32227,-0.131836 0.62256,-0.205078 0.30029,-0.08057 0.56396,-0.08057 0.98145,0 1.49414,0.60791 0.5127,0.607911 0.5127,1.706543 l 0,4.138184 q 0,0.13916 0.0879,0.227051 0.0952,0.08789 0.22705,0.102539 l 0.65918,0.04395 0,0.585938 -3.31055,0 z" />
      <path
         id="path3459"
         style=""
         d="m 372.40939,63.751717 -0.19775,-0.886231 q -0.39551,0.300293 -0.81299,0.534668 -0.1831,0.102539 -0.38818,0.197754 -0.20508,0.09522 -0.42481,0.168457 -0.2124,0.08057 -0.43945,0.124512 -0.21973,0.04394 -0.43945,0.04394 -0.41016,0 -0.76905,-0.13916 -0.35156,-0.13916 -0.61523,-0.402832 -0.26367,-0.263672 -0.41748,-0.637207 -0.14649,-0.373535 -0.14649,-0.84961 0,-0.27832 0.0513,-0.527343 0.0586,-0.249024 0.22705,-0.483399 0.16846,-0.234375 0.46875,-0.446777 0.30762,-0.219727 0.79834,-0.432129 0.49805,-0.212402 1.2085,-0.41748 0.71777,-0.212403 1.69922,-0.424805 l 0,-0.644531 q 0,-0.754395 -0.33691,-1.113282 -0.33692,-0.366211 -1.06202,-0.366211 -0.3955,0 -0.67382,0.07324 -0.27832,0.07324 -0.38819,0.117187 l 0,1.303711 -1.09131,0 q -0.10254,0 -0.20507,-0.01465 -0.0952,-0.01465 -0.17579,-0.05859 -0.0806,-0.05127 -0.13183,-0.131836 -0.0439,-0.08789 -0.0439,-0.227051 0,-0.461426 0.27832,-0.791015 0.27832,-0.336915 0.7251,-0.556641 0.44678,-0.219727 1.00342,-0.322266 0.55664,-0.102539 1.11328,-0.102539 0.6958,0 1.1499,0.168457 0.46143,0.168457 0.7251,0.46875 0.271,0.300293 0.38086,0.710449 0.10986,0.410157 0.10986,0.900879 l 0,4.204102 q 0,0.13916 0.0879,0.227051 0.0952,0.08789 0.22705,0.102539 l 0.7251,0.04395 0,0.585938 -2.21924,0 z m -0.19775,-4.006348 q -1.01074,0.256348 -1.604,0.505371 -0.59327,0.249023 -0.90088,0.505371 -0.3003,0.249024 -0.38819,0.512695 -0.0806,0.256348 -0.0806,0.534668 0,0.234375 0.0732,0.461426 0.0806,0.219727 0.21973,0.395508 0.14648,0.175781 0.35156,0.285645 0.2124,0.102539 0.4834,0.102539 0.30029,0 0.62255,-0.109864 0.32959,-0.109863 0.60059,-0.241699 0.31494,-0.153808 0.62256,-0.358887 l 0,-2.592773 z" />
      <path
         id="path3461"
         style=""
         d="m 375.26584,63.751717 0,-0.585938 0.79834,-0.04395 q 0.10254,0 0.2124,-0.102539 0.11719,-0.109864 0.11719,-0.212403 l 0,-9.030761 -1.14258,0 0,-0.498047 1.91895,-0.578613 0.61523,0 0,10.107421 q 0,0.102539 0.10254,0.212403 0.10986,0.102539 0.2124,0.102539 l 0.81299,0.04395 0,0.585938 -3.64746,0 z" />
    </g>
    <g
       id="flowRoot5053"
       style="font-style:normal;font-variant:normal;font-weight:normal;font-stretch:normal;font-size:11.25px;line-height:0%;font-family:'Abyssinica SIL';-inkscape-font-specification:'Abyssinica SIL, Normal';text-align:start;letter-spacing:0px;word-spacing:0px;writing-mode:lr-tb;text-anchor:start;fill:#000000;fill-opacity:1;stroke:none;stroke-width:1px;stroke-linecap:butt;stroke-linejoin:miter;stroke-opacity:1" />
  </g>
</svg>
